<svg width="250" height="160" viewBox="0 0 250 160" fill="none" xmlns="http://www.w3.org/2000/svg">
<path d="M87.8906 84.0046L89.9108 90.2094L92.6524 87.9005L91.2095 82.9946L87.8906 84.0046Z" fill="#FFB9B9"/>
<path d="M61.9141 57.5979L62.6355 67.2657L80.0952 67.6986L87.7429 85.1583L91.9274 83.4267C91.9274 83.4267 87.1657 66.9771 85.0013 61.7825C82.8368 56.5878 74.612 60.3395 74.612 60.3395L73.8906 58.8966L61.9141 57.5979Z" fill="#2F2E41"/>
<path d="M89.0381 89.0548C89.0381 89.0548 89.3267 93.6723 89.7596 93.9609C90.1924 94.2495 93.5112 93.6723 93.5112 93.6723C93.5112 93.6723 94.5084 93.8938 98.5616 92.8065C103.118 91.5841 97.9844 89.7763 97.9844 89.7763C97.9844 89.7763 94.6656 87.6119 93.2226 86.6018C91.7797 85.5918 90.7696 87.7562 90.7696 87.7562C91.0582 88.6219 89.0381 89.0548 89.0381 89.0548Z" fill="#2F2E41"/>
<path d="M204.492 107.75L204.952 123.828L209.851 142.661C209.851 142.661 208.779 145.876 209.545 146.642C210.311 147.407 213.832 148.786 213.832 148.786L210.923 108.669L204.492 107.75Z" fill="#2F2E41"/>
<path d="M215.144 146.564C215.144 146.564 216.891 150.408 214.445 150.758C211.999 151.107 200.699 152.039 201.398 150.059C202.097 148.079 210.601 146.215 210.601 146.215L215.144 146.564Z" fill="#2F2E41"/>
<path d="M221.645 93.5112C221.645 93.5112 219.808 103.464 218.583 105.148C217.358 106.832 219.196 119.081 219.196 119.081C219.196 119.081 221.952 136.69 220.727 139.446C219.502 142.202 219.808 141.283 219.961 142.814C220.114 144.346 220.42 145.571 219.961 146.949C219.502 148.327 219.502 148.173 219.349 148.939C219.196 149.705 219.349 153.839 219.349 153.839C219.349 153.839 212.765 156.135 211.693 152.767C211.693 152.767 213.224 150.623 212.765 148.939C212.286 147.244 212.028 145.494 211.999 143.733V140.518L204.956 114.182L203.271 104.689C203.271 104.689 203.731 95.0423 205.415 94.1236C207.099 93.2049 221.645 93.5112 221.645 93.5112Z" fill="#2F2E41"/>
<path d="M218.89 153.071C218.89 153.071 221.186 158.123 217.971 158.583C214.756 159.042 199.903 160.267 200.822 157.664C201.741 155.061 212.918 152.611 212.918 152.611L218.89 153.071Z" fill="#2F2E41"/>
<path d="M215.988 49.4187C219.37 49.4187 222.113 46.6766 222.113 43.2941C222.113 39.9115 219.37 37.1694 215.988 37.1694C212.605 37.1694 209.863 39.9115 209.863 43.2941C209.863 46.6766 212.605 49.4187 215.988 49.4187Z" fill="#FFB9B9"/>
<path d="M220.269 46.0012L220.155 53.8227L212.646 53.8481C212.646 53.8481 214.552 47.7252 213.699 46.4449C212.845 45.1646 220.269 46.0012 220.269 46.0012Z" fill="#FFB9B9"/>
<path d="M209.093 58.1389C209.093 58.1389 214.452 51.2487 218.586 54.1579C222.72 57.0671 224.251 63.9573 224.251 63.9573L223.333 83.2499C223.333 83.2499 221.036 86.006 222.414 87.8433C223.792 89.6807 224.557 89.2214 223.486 90.5994C222.414 91.9775 221.189 93.0493 221.648 93.5086C222.108 93.968 221.189 94.2742 221.189 94.2742L204.959 94.7336C204.959 94.7336 205.418 94.1211 204.04 92.2837C202.662 90.4463 204.346 87.9965 204.04 87.0778C203.734 86.1591 203.427 87.2309 203.274 85.0873C203.121 82.9436 209.093 58.1389 209.093 58.1389Z" fill="#3F3D56"/>
<path d="M210.613 97.6422C210.613 97.6422 210.307 101.47 208.01 102.083C207.149 102.312 206.503 101.874 206.032 101.237C205.592 100.627 205.345 99.8987 205.324 99.1466C205.302 98.3945 205.507 97.6533 205.911 97.0188L206.479 96.1111L210.613 97.6422Z" fill="#FFB9B9"/>
<path d="M224.78 50.4089C224.78 50.4089 224.933 53.4712 224.78 53.9306C224.627 54.3899 224.473 54.8493 224.78 55.3086C225.086 55.7679 224.933 57.2991 224.627 57.4522C224.32 57.6054 225.239 58.9834 224.933 59.9021C224.627 60.8208 224.32 61.127 224.167 61.4332C224.014 61.7395 223.767 62.2881 223.767 62.2881C223.767 62.2881 219.268 52.7056 215.593 55.0024C211.918 57.2991 209.009 58.0647 209.009 58.0647C209.009 58.0647 210.999 47.3466 224.78 50.4089Z" fill="#3F3D56"/>
<path d="M218.132 57.5249C218.132 57.5249 223.032 57.9843 222.726 64.4151C222.42 70.846 223.185 80.9516 223.185 80.9516C223.185 80.9516 214.764 93.8134 213.386 94.7321C212.008 95.6507 211.855 95.4976 212.008 96.2632C212.161 97.0288 212.314 97.6413 211.702 98.2537C211.34 98.6177 210.927 98.9272 210.477 99.1724C210.477 99.1724 205.577 97.4881 206.036 95.957C206.496 94.4258 208.639 91.976 208.639 91.976C208.639 91.976 212.314 86.0044 212.467 85.0858C212.62 84.1671 212.62 84.3202 213.08 83.8608C213.539 83.4015 214.764 81.5641 214.764 80.6454V77.7362L213.48 62.1894C213.422 61.5562 213.498 60.9178 213.704 60.3163C213.91 59.7147 214.241 59.1635 214.675 58.6989C215.404 57.9365 216.506 57.3297 218.132 57.5249Z" fill="#3F3D56"/>
<path d="M212.02 38.573C211.621 38.6835 211.2 38.693 210.796 38.6006C210.393 38.5082 210.018 38.3167 209.707 38.0435C209.109 37.4748 208.907 36.4894 209.333 35.7821C209.701 35.1713 210.416 34.8725 211.097 34.6602C212.598 34.1923 214.162 33.9538 215.734 33.9529C216.484 33.9527 217.267 34.0166 217.908 34.4045C218.226 34.5964 218.494 34.86 218.808 35.0578C219.385 35.4214 220.078 35.5423 220.712 35.7949C221.36 36.0582 221.943 36.4576 222.424 36.966C222.904 37.4745 223.269 38.0801 223.495 38.742C223.64 39.1909 223.731 39.6556 223.765 40.1262C223.869 41.4153 223.641 42.7095 223.104 43.8857C222.249 45.7486 220.623 47.315 220.393 49.3516C219.518 48.6167 219.261 47.3842 218.583 46.4642C218.079 45.7838 217.358 45.2948 216.54 45.0769C216.311 45.0467 216.096 44.9506 215.921 44.8003C215.803 44.6374 215.736 44.4434 215.727 44.2426L215.307 41.2168C215.221 40.6011 215.106 39.9281 214.633 39.5241C214.337 39.3035 213.993 39.1545 213.63 39.0887C212.77 38.8749 211.894 38.7321 211.011 38.6616" fill="#2F2E41"/>
<path opacity="0.1" d="M222.438 83.1411L213.843 94.2955C213.843 94.2955 221.757 87.6794 222.438 83.1411Z" fill="black"/>
<path opacity="0.1" d="M214.188 70.7937L214.269 81.3282L209.277 88.8164L213.362 80.4206L214.188 70.7937Z" fill="black"/>
<path d="M161.837 65.7937H109.775V64.7207H86.1688V65.7937H33.8927C32.9587 65.7937 32.063 66.1648 31.4025 66.8252C30.7421 67.4856 30.3711 68.3813 30.3711 69.3153V140.603C30.3711 141.537 30.7421 142.433 31.4025 143.094C32.063 143.754 32.9587 144.125 33.8927 144.125H161.837C162.299 144.125 162.757 144.034 163.185 143.857C163.612 143.68 164 143.421 164.327 143.094C164.654 142.767 164.913 142.378 165.09 141.951C165.267 141.524 165.359 141.066 165.359 140.603V69.3153C165.359 68.8529 165.267 68.3949 165.09 67.9677C164.913 67.5404 164.654 67.1522 164.327 66.8252C164 66.4982 163.612 66.2388 163.185 66.0618C162.757 65.8848 162.299 65.7937 161.837 65.7937Z" fill="#3F3D56"/>
<path opacity="0.1" d="M160.628 72.0144H35.083V142.835H160.628V72.0144Z" fill="black"/>
<path d="M97.7476 70.0853C98.4587 70.0853 99.0352 69.5088 99.0352 68.7976C99.0352 68.0865 98.4587 67.51 97.7476 67.51C97.0365 67.51 96.46 68.0865 96.46 68.7976C96.46 69.5088 97.0365 70.0853 97.7476 70.0853Z" fill="#0174CE"/>
<path d="M160.055 71.9778H35.3027V142.772H160.055V71.9778Z" fill="#E6E6E6"/>
<path d="M156.485 76.8179H38.8672V138.313H156.485V76.8179Z" fill="white"/>
<path d="M79.7827 83.196H49.5605V131.93H79.7827V83.196Z" fill="#E6E6E6"/>
<path d="M110.17 83.196H84.9854V96.6105H110.17V83.196Z" fill="#0174CE"/>
<path d="M110.17 100.347H84.9854V114.78H110.17V100.347Z" fill="#E6E6E6"/>
<path d="M110.17 118.517H84.9854V131.932H110.17V118.517Z" fill="#E6E6E6"/>
<path d="M145.798 83.196H115.576V104.434H145.798V83.196Z" fill="#E6E6E6"/>
<path d="M145.798 110.692H115.576V131.93H145.798V110.692Z" fill="#0174CE"/>
<path d="M168.878 141.548H156.625V140.665C156.625 140.642 156.621 140.619 156.612 140.598C156.603 140.577 156.59 140.557 156.574 140.541C156.558 140.525 156.538 140.512 156.517 140.503C156.496 140.494 156.473 140.49 156.45 140.49H152.249C152.226 140.49 152.204 140.494 152.182 140.503C152.161 140.512 152.142 140.525 152.126 140.541C152.109 140.557 152.097 140.577 152.088 140.598C152.079 140.619 152.074 140.642 152.074 140.665V141.548H149.449V140.665C149.449 140.642 149.444 140.619 149.436 140.598C149.427 140.577 149.414 140.557 149.398 140.541C149.381 140.525 149.362 140.512 149.341 140.503C149.32 140.494 149.297 140.49 149.274 140.49H145.073C145.05 140.49 145.027 140.494 145.006 140.503C144.985 140.512 144.966 140.525 144.949 140.541C144.933 140.557 144.92 140.577 144.911 140.598C144.903 140.619 144.898 140.642 144.898 140.665V141.548H142.272V140.665C142.272 140.642 142.268 140.619 142.259 140.598C142.25 140.577 142.237 140.557 142.221 140.541C142.205 140.525 142.186 140.512 142.164 140.503C142.143 140.494 142.12 140.49 142.097 140.49H137.897C137.874 140.49 137.851 140.494 137.83 140.503C137.808 140.512 137.789 140.525 137.773 140.541C137.757 140.557 137.744 140.577 137.735 140.598C137.726 140.619 137.722 140.642 137.722 140.665V141.548H135.096V140.665C135.096 140.642 135.092 140.619 135.083 140.598C135.074 140.577 135.061 140.557 135.045 140.541C135.029 140.525 135.009 140.512 134.988 140.503C134.967 140.494 134.944 140.49 134.921 140.49H130.72C130.697 140.49 130.675 140.494 130.653 140.503C130.632 140.512 130.613 140.525 130.597 140.541C130.58 140.557 130.567 140.577 130.559 140.598C130.55 140.619 130.545 140.642 130.545 140.665V141.548H127.92V140.665C127.92 140.642 127.915 140.619 127.906 140.598C127.898 140.577 127.885 140.557 127.868 140.541C127.852 140.525 127.833 140.512 127.812 140.503C127.79 140.494 127.768 140.49 127.745 140.49H123.544C123.521 140.49 123.498 140.494 123.477 140.503C123.456 140.512 123.436 140.525 123.42 140.541C123.404 140.557 123.391 140.577 123.382 140.598C123.373 140.619 123.369 140.642 123.369 140.665V141.548H120.743V140.665C120.743 140.642 120.739 140.619 120.73 140.598C120.721 140.577 120.708 140.557 120.692 140.541C120.676 140.525 120.657 140.512 120.635 140.503C120.614 140.494 120.591 140.49 120.568 140.49H116.368C116.345 140.49 116.322 140.494 116.301 140.503C116.279 140.512 116.26 140.525 116.244 140.541C116.228 140.557 116.215 140.577 116.206 140.598C116.197 140.619 116.192 140.642 116.192 140.665V141.548H113.567V140.665C113.567 140.642 113.562 140.619 113.554 140.598C113.545 140.577 113.532 140.557 113.516 140.541C113.499 140.525 113.48 140.512 113.459 140.503C113.438 140.494 113.415 140.49 113.392 140.49H80.4856C80.4392 140.49 80.3947 140.508 80.3619 140.541C80.329 140.574 80.3106 140.618 80.3106 140.665V141.548H77.6851V140.665C77.6851 140.642 77.6806 140.619 77.6718 140.598C77.663 140.577 77.6501 140.557 77.6338 140.541C77.6176 140.525 77.5983 140.512 77.5771 140.503C77.5558 140.494 77.5331 140.49 77.5101 140.49H73.3093C73.2628 140.49 73.2183 140.508 73.1855 140.541C73.1527 140.574 73.1342 140.618 73.1342 140.665V141.548H70.5087V140.665C70.5087 140.642 70.5042 140.619 70.4954 140.598C70.4866 140.577 70.4737 140.557 70.4575 140.541C70.4412 140.525 70.4219 140.512 70.4007 140.503C70.3794 140.494 70.3567 140.49 70.3337 140.49H66.1329C66.0865 140.49 66.042 140.508 66.0091 140.541C65.9763 140.574 65.9579 140.618 65.9579 140.665V141.548H63.3323V140.665C63.3323 140.642 63.3278 140.619 63.319 140.598C63.3102 140.577 63.2973 140.557 63.2811 140.541C63.2648 140.525 63.2455 140.512 63.2243 140.503C63.2031 140.494 63.1803 140.49 63.1573 140.49H58.9565C58.9101 140.49 58.8656 140.508 58.8327 140.541C58.7999 140.574 58.7815 140.618 58.7815 140.665V141.548H56.156V140.665C56.156 140.642 56.1514 140.619 56.1426 140.598C56.1339 140.577 56.121 140.557 56.1047 140.541C56.0885 140.525 56.0692 140.512 56.0479 140.503C56.0267 140.494 56.0039 140.49 55.9809 140.49H51.7801C51.7337 140.49 51.6892 140.508 51.6564 140.541C51.6235 140.574 51.6051 140.618 51.6051 140.665V141.548H48.9796V140.665C48.9796 140.642 48.9751 140.619 48.9663 140.598C48.9575 140.577 48.9446 140.557 48.9283 140.541C48.9121 140.525 48.8928 140.512 48.8716 140.503C48.8503 140.494 48.8276 140.49 48.8046 140.49H44.6038C44.5573 140.49 44.5128 140.508 44.48 140.541C44.4472 140.574 44.4287 140.618 44.4287 140.665V141.548H41.8032V140.665C41.8032 140.642 41.7987 140.619 41.7899 140.598C41.7811 140.577 41.7682 140.557 41.752 140.541C41.7357 140.525 41.7164 140.512 41.6952 140.503C41.6739 140.494 41.6512 140.49 41.6282 140.49H37.4274C37.381 140.49 37.3364 140.508 37.3036 140.541C37.2708 140.574 37.2523 140.618 37.2523 140.665V141.548H29.2008C28.0867 141.548 27.0182 141.99 26.2304 142.778C25.4426 143.566 25 144.634 25 145.748V147.648C25 148.762 25.4426 149.83 26.2304 150.618C27.0182 151.406 28.0867 151.849 29.2008 151.849H168.878C169.992 151.849 171.06 151.406 171.848 150.618C172.636 149.83 173.078 148.762 173.078 147.648V145.748C173.078 144.634 172.636 143.566 171.848 142.778C171.06 141.99 169.992 141.548 168.878 141.548Z" fill="#3F3D56"/>
<path d="M56.382 18.827C55.6173 19.8487 55.1544 21.0642 55.0457 22.3357C54.89 23.8834 54.4368 26.3589 53.1182 27.6601C51.1091 29.6425 50.4395 31.1293 50.4395 31.1293L51.1091 31.8727C51.1091 30.3859 52.002 30.1381 52.002 30.1381L51.7788 31.8727C57.806 37.5721 71.1996 32.3683 71.1996 32.3683L70.7532 27.9078C71.8693 28.4034 72.3158 31.8727 72.3158 31.8727L74.1016 31.3771C74.1016 31.3771 70.9764 25.9255 68.9674 20.9694C66.9583 16.0134 63.8331 17.2524 63.8331 17.2524C60.1499 15.2838 57.7171 17.1094 56.382 18.827Z" fill="#2F2E41"/>
<path d="M77.3682 21.3779L79.5326 7.23695C79.5326 7.23695 77.2239 1.60944 81.1198 1.03226C85.0158 0.45508 82.4185 7.81413 82.4185 7.81413L81.1198 21.3779H77.3682Z" fill="#FFB9B9"/>
<path d="M75.6348 87.9005C76.3562 89.0548 76.5005 94.9709 76.5005 94.9709L81.5509 91.7964L80.1079 86.6018L75.6348 87.9005Z" fill="#FFB9B9"/>
<path d="M68.5572 56.8777C68.5572 56.8777 62.2082 56.8777 58.7451 58.8978C57.632 59.5471 57.3089 60.7182 57.3831 62.0086C57.577 65.3796 60.3301 68.0418 63.7002 68.2503L73.4632 68.8542C72.0203 72.8944 75.339 88.6226 75.339 88.6226L80.5337 87.9011C80.5337 87.9011 79.8122 82.5622 79.9565 82.2736C80.1008 81.985 81.3994 70.73 80.5337 64.8139C79.6679 58.8978 67.8357 61.3508 67.8357 61.3508L68.5572 56.8777Z" fill="#2F2E41"/>
<path d="M76.1969 93.669C76.1969 93.669 75.7641 97.8535 75.9084 98.4307C76.0526 99.0079 81.9688 99.2965 87.3077 97.7092C92.6466 96.122 86.5862 94.3904 86.5862 94.3904C86.5862 94.3904 82.9788 91.9374 81.9687 91.0717C80.9587 90.2059 79.5157 92.226 79.5157 92.226C79.2271 93.5247 76.1969 93.669 76.1969 93.669Z" fill="#2F2E41"/>
<path d="M67.3372 27.1142C67.7967 24.2823 65.8736 21.6141 63.0417 21.1546C60.2098 20.695 57.5416 22.6182 57.0821 25.4501C56.6225 28.2819 58.5457 30.9502 61.3776 31.4097C64.2094 31.8693 66.8777 29.9461 67.3372 27.1142Z" fill="#FFB9B9"/>
<path d="M60.0367 30.1812C61.9125 32.9228 59.6038 34.5101 59.6038 34.5101L58.5938 42.0134C58.5938 42.0134 69.4159 43.0235 71.2917 41.5805C73.1676 40.1376 69.1273 35.3759 67.6843 34.943C66.2414 34.5101 65.9528 28.594 65.9528 28.594L60.0367 30.1812Z" fill="#FFB9B9"/>
<path d="M60.3338 33.7433L54.6404 32.8527L53.9911 38.9852C53.9911 38.9852 54.2797 52.6933 53.9911 55.1463C53.7025 57.5993 58.8971 60.3409 58.8971 60.3409C58.8971 60.3409 66.4005 59.7637 67.8434 59.0422C69.2864 58.3208 73.9038 59.7637 73.9038 59.7637C74.4182 59.7923 74.9331 59.7187 75.4189 59.5473C76.2847 59.2587 73.1823 38.6966 73.1823 38.6966L70.4407 32.3477L67.1219 33.6463L66.1119 38.4081L60.3338 33.7433Z" fill="#0174CE"/>
<path d="M72.5969 38.5522L78.3687 31.1931L82.4089 21.2368L76.7815 19.0725L74.4726 27.2973L70.4324 32.2034L70.2881 33.069L72.5969 38.5522Z" fill="#0174CE"/>
<path d="M54.4189 49.7542L68.7144 50.2923C68.7144 50.2923 74.042 47.357 75.0596 51.1618C76.0772 54.9665 68.47 53.2252 68.47 53.2252L54.8467 53.4814L54.4189 49.7542Z" fill="#FFB9B9"/>
<path d="M55.6353 48.7207L62.2729 49.1535L63.1387 53.6267C63.1387 53.6267 55.0581 53.4824 51.8837 53.3381C48.7092 53.1938 51.8837 39.7744 52.3165 35.7341C52.7494 31.6938 54.9138 32.8482 54.9138 32.8482L56.2125 33.8583L55.6353 48.7207Z" fill="#0174CE"/>
<path opacity="0.15" d="M56.7964 47.2772L62.5682 49.5861L56.2191 48.2872L55.7861 40.0625L56.7964 47.2772Z" fill="black"/>
<path d="M67.6962 24.5568L58.1658 24.7838L57.0312 20.0186H67.6962V24.5568Z" fill="#2F2E41"/>
</svg>
