<svg width="250" height="160" viewBox="0 0 250 160" fill="none" xmlns="http://www.w3.org/2000/svg">
<path d="M238.506 9.08545H81.8191V106.987H238.506V9.08545Z" fill="#E6E6E6"/>
<path d="M234.025 21.3657H86.2986V101.196H234.025V21.3657Z" fill="white"/>
<path d="M238.456 9H81.769V15.25H238.456V9Z" fill="#0174CE"/>
<path d="M86.7064 13.5252C87.3878 13.5252 87.9402 12.9864 87.9402 12.3216C87.9402 11.6568 87.3878 11.1179 86.7064 11.1179C86.025 11.1179 85.4727 11.6568 85.4727 12.3216C85.4727 12.9864 86.025 13.5252 86.7064 13.5252Z" fill="white"/>
<path d="M91.386 13.5252C92.0674 13.5252 92.6197 12.9864 92.6197 12.3216C92.6197 11.6568 92.0674 11.1179 91.386 11.1179C90.7046 11.1179 90.1522 11.6568 90.1522 12.3216C90.1522 12.9864 90.7046 13.5252 91.386 13.5252Z" fill="white"/>
<path d="M96.0655 13.5252C96.7469 13.5252 97.2993 12.9864 97.2993 12.3216C97.2993 11.6568 96.7469 11.1179 96.0655 11.1179C95.3842 11.1179 94.8318 11.6568 94.8318 12.3216C94.8318 12.9864 95.3842 13.5252 96.0655 13.5252Z" fill="white"/>
<path d="M192.245 28.8443H144.151C144.048 28.8311 143.954 28.782 143.885 28.706C143.817 28.6301 143.78 28.5325 143.78 28.4314C143.78 28.3304 143.817 28.2328 143.885 28.1569C143.954 28.0809 144.048 28.0318 144.151 28.0186H192.245C192.348 28.0318 192.442 28.0809 192.511 28.1569C192.579 28.2328 192.617 28.3304 192.617 28.4314C192.617 28.5325 192.579 28.6301 192.511 28.706C192.442 28.782 192.348 28.8311 192.245 28.8443Z" fill="#CCCCCC"/>
<path d="M158.914 33.3854H128.335C128.233 33.3722 128.138 33.323 128.07 33.247C128.002 33.1711 127.964 33.0735 127.964 32.9725C127.964 32.8714 128.002 32.7739 128.07 32.6979C128.138 32.6219 128.233 32.5728 128.335 32.5596H158.914C159.017 32.5728 159.111 32.6219 159.179 32.6979C159.247 32.7739 159.285 32.8714 159.285 32.9725C159.285 33.0735 159.247 33.1711 159.179 33.247C159.111 33.323 159.017 33.3722 158.914 33.3854Z" fill="#CCCCCC"/>
<path d="M192.247 33.4647H161.668C161.565 33.4515 161.471 33.4023 161.403 33.3264C161.334 33.2504 161.297 33.1528 161.297 33.0518C161.297 32.9508 161.334 32.8532 161.403 32.7772C161.471 32.7013 161.565 32.6521 161.668 32.6389H192.247C192.349 32.6521 192.443 32.7013 192.512 32.7772C192.58 32.8532 192.618 32.9508 192.618 33.0518C192.618 33.1528 192.58 33.2504 192.512 33.3264C192.443 33.4023 192.349 33.4515 192.247 33.4647H192.247Z" fill="#CCCCCC"/>
<path d="M158.989 37.9264H128.41C128.308 37.9132 128.213 37.864 128.145 37.7881C128.077 37.7121 128.039 37.6145 128.039 37.5135C128.039 37.4125 128.077 37.3149 128.145 37.2389C128.213 37.1629 128.308 37.1138 128.41 37.1006H158.989C159.092 37.1138 159.186 37.1629 159.254 37.2389C159.323 37.3149 159.36 37.4125 159.36 37.5135C159.36 37.6145 159.323 37.7121 159.254 37.7881C159.186 37.864 159.092 37.9132 158.989 37.9264Z" fill="#CCCCCC"/>
<path d="M159.064 42.4674H128.485C128.383 42.4542 128.288 42.405 128.22 42.3291C128.152 42.2531 128.114 42.1555 128.114 42.0545C128.114 41.9535 128.152 41.8559 128.22 41.7799C128.288 41.704 128.383 41.6548 128.485 41.6416H159.064C159.167 41.6548 159.261 41.704 159.329 41.7799C159.398 41.8559 159.435 41.9535 159.435 42.0545C159.435 42.1555 159.398 42.2531 159.329 42.3291C159.261 42.405 159.167 42.4542 159.064 42.4674Z" fill="#CCCCCC"/>
<path d="M172.928 37.9264H164.17C164.068 37.9132 163.973 37.864 163.905 37.7881C163.837 37.7121 163.799 37.6145 163.799 37.5135C163.799 37.4125 163.837 37.3149 163.905 37.2389C163.973 37.1629 164.068 37.1138 164.17 37.1006H172.928C173.031 37.1138 173.125 37.1629 173.193 37.2389C173.262 37.3149 173.299 37.4125 173.299 37.5135C173.299 37.6145 173.262 37.7121 173.193 37.7881C173.125 37.864 173.031 37.9132 172.928 37.9264Z" fill="#CCCCCC"/>
<path d="M172.928 42.3881H164.17C164.068 42.3749 163.973 42.3257 163.905 42.2497C163.837 42.1738 163.799 42.0762 163.799 41.9752C163.799 41.8741 163.837 41.7765 163.905 41.7006C163.973 41.6246 164.068 41.5755 164.17 41.5623H172.928C173.031 41.5755 173.125 41.6246 173.193 41.7006C173.262 41.7765 173.299 41.8741 173.299 41.9752C173.299 42.0762 173.262 42.1738 173.193 42.2497C173.125 42.3257 173.031 42.3749 172.928 42.3881Z" fill="#CCCCCC"/>
<path d="M187.643 42.3881H178.885C178.782 42.3749 178.688 42.3257 178.619 42.2497C178.551 42.1738 178.513 42.0762 178.513 41.9752C178.513 41.8741 178.551 41.7765 178.619 41.7006C178.688 41.6246 178.782 41.5755 178.885 41.5623H187.643C187.745 41.5755 187.839 41.6246 187.908 41.7006C187.976 41.7765 188.014 41.8741 188.014 41.9752C188.014 42.0762 187.976 42.1738 187.908 42.2497C187.839 42.3257 187.745 42.3749 187.643 42.3881Z" fill="#CCCCCC"/>
<path d="M136.868 28.8443H128.11C128.007 28.8311 127.913 28.782 127.845 28.706C127.777 28.6301 127.739 28.5325 127.739 28.4314C127.739 28.3304 127.777 28.2328 127.845 28.1569C127.913 28.0809 128.007 28.0318 128.11 28.0186H136.868C136.971 28.0318 137.065 28.0809 137.133 28.1569C137.201 28.2328 137.239 28.3304 137.239 28.4314C137.239 28.5325 137.201 28.6301 137.133 28.706C137.065 28.782 136.971 28.8311 136.868 28.8443Z" fill="#CCCCCC"/>
<path d="M158.789 80.9195H128.21C128.108 80.9063 128.013 80.8572 127.945 80.7812C127.877 80.7053 127.839 80.6077 127.839 80.5066C127.839 80.4056 127.877 80.308 127.945 80.2321C128.013 80.1561 128.108 80.107 128.21 80.0938H158.789C158.892 80.107 158.986 80.1561 159.054 80.2321C159.122 80.308 159.16 80.4056 159.16 80.5066C159.16 80.6077 159.122 80.7053 159.054 80.7812C158.986 80.8572 158.892 80.9063 158.789 80.9195H158.789Z" fill="#CCCCCC"/>
<path d="M158.664 90.0016H128.085C127.982 89.9884 127.888 89.9392 127.82 89.8633C127.752 89.7873 127.714 89.6897 127.714 89.5887C127.714 89.4876 127.752 89.3901 127.82 89.3141C127.888 89.2381 127.982 89.189 128.085 89.1758H158.664C158.766 89.189 158.861 89.2381 158.929 89.3141C158.997 89.3901 159.035 89.4876 159.035 89.5887C159.035 89.6897 158.997 89.7873 158.929 89.8633C158.861 89.9392 158.766 89.9884 158.664 90.0016H158.664Z" fill="#CCCCCC"/>
<path d="M158.739 94.5426H128.16C128.057 94.5294 127.963 94.4802 127.895 94.4043C127.826 94.3283 127.789 94.2307 127.789 94.1297C127.789 94.0287 127.826 93.9311 127.895 93.8551C127.963 93.7792 128.057 93.73 128.16 93.7168H158.739C158.841 93.73 158.936 93.7792 159.004 93.8551C159.072 93.9311 159.11 94.0287 159.11 94.1297C159.11 94.2307 159.072 94.3283 159.004 94.4043C158.936 94.4802 158.841 94.5294 158.739 94.5426H158.739Z" fill="#CCCCCC"/>
<path d="M171.777 90.087H163.019C162.916 90.0738 162.822 90.0247 162.754 89.9487C162.686 89.8727 162.648 89.7752 162.648 89.6741C162.648 89.5731 162.686 89.4755 162.754 89.3996C162.822 89.3236 162.916 89.2744 163.019 89.2612H171.777C171.88 89.2744 171.974 89.3236 172.042 89.3996C172.111 89.4755 172.148 89.5731 172.148 89.6741C172.148 89.7752 172.111 89.8727 172.042 89.9487C171.974 90.0247 171.88 90.0738 171.777 90.087Z" fill="#CCCCCC"/>
<path d="M171.777 94.5426H163.019C162.916 94.5294 162.822 94.4802 162.754 94.4043C162.686 94.3283 162.648 94.2307 162.648 94.1297C162.648 94.0287 162.686 93.9311 162.754 93.8551C162.822 93.7792 162.916 93.73 163.019 93.7168H171.777C171.88 93.73 171.974 93.7792 172.042 93.8551C172.111 93.9311 172.148 94.0287 172.148 94.1297C172.148 94.2307 172.111 94.3283 172.042 94.4043C171.974 94.4802 171.88 94.5294 171.777 94.5426Z" fill="#CCCCCC"/>
<path d="M186.491 90.087H177.733C177.631 90.0738 177.536 90.0247 177.468 89.9487C177.4 89.8727 177.362 89.7752 177.362 89.6741C177.362 89.5731 177.4 89.4755 177.468 89.3996C177.536 89.3236 177.631 89.2744 177.733 89.2612H186.491C186.594 89.2744 186.688 89.3236 186.757 89.3996C186.825 89.4755 186.863 89.5731 186.863 89.6741C186.863 89.7752 186.825 89.8727 186.757 89.9487C186.688 90.0247 186.594 90.0738 186.491 90.087Z" fill="#CCCCCC"/>
<path d="M192.27 85.4606H144.176C144.073 85.4474 143.979 85.3982 143.91 85.3222C143.842 85.2463 143.805 85.1487 143.805 85.0477C143.805 84.9466 143.842 84.8491 143.91 84.7731C143.979 84.6971 144.073 84.648 144.176 84.6348H192.27C192.373 84.648 192.467 84.6971 192.536 84.7731C192.604 84.8491 192.642 84.9466 192.642 85.0477C192.642 85.1487 192.604 85.2463 192.536 85.3222C192.467 85.3982 192.373 85.4474 192.27 85.4606Z" fill="#CCCCCC"/>
<path d="M136.918 85.4606H128.16C128.057 85.4474 127.963 85.3982 127.895 85.3222C127.826 85.2463 127.789 85.1487 127.789 85.0477C127.789 84.9466 127.826 84.8491 127.895 84.7731C127.963 84.6971 128.057 84.648 128.16 84.6348H136.918C137.021 84.648 137.115 84.6971 137.183 84.7731C137.251 84.8491 137.289 84.9466 137.289 85.0477C137.289 85.1487 137.251 85.2463 137.183 85.3222C137.115 85.3982 137.021 85.4474 136.918 85.4606Z" fill="#CCCCCC"/>
<path d="M151.426 49.8081L139.55 61.2491L151.426 72.6899L154.098 70.0831L145.117 61.3214L154.172 52.4874L151.426 49.8081Z" fill="#E6E6E6"/>
<path d="M168.923 49.8081L180.798 61.2491L168.923 72.6899L166.251 70.0831L175.231 61.3214L166.176 52.4874L168.923 49.8081Z" fill="#E6E6E6"/>
<path d="M151.426 49.8081L139.55 61.2491L151.426 72.6899L154.098 70.0831L145.117 61.3214L154.172 52.4874L151.426 49.8081Z" fill="#0174CE"/>
<path d="M168.923 49.8081L180.798 61.2491L168.923 72.6899L166.251 70.0831L175.231 61.3214L166.176 52.4874L168.923 49.8081Z" fill="#0174CE"/>
<path d="M131.587 145.506C135.282 150.334 142.952 150.842 142.952 150.842C142.952 150.842 144.631 143.523 140.936 138.695C137.241 133.867 129.571 133.359 129.571 133.359C129.571 133.359 127.892 140.678 131.587 145.506Z" fill="#E6E6E6"/>
<path d="M150.404 147.325C147.966 150.511 142.905 150.846 142.905 150.846C142.905 150.846 141.797 146.017 144.235 142.831C146.673 139.645 151.734 139.31 151.734 139.31C151.734 139.31 152.843 144.14 150.404 147.325Z" fill="#E6E6E6"/>
<path d="M49.3979 124.251V136.783H45.7279L43.2815 123.655L49.3979 124.251Z" fill="#FFB9B9"/>
<path d="M20.3446 124.251V136.783H16.6748L14.2281 123.655L20.3446 124.251Z" fill="#FFB9B9"/>
<path d="M39.703 31.8715C39.703 31.8715 33.8057 27.7361 33.0685 29.7139C32.3314 31.6917 37.4915 35.2876 37.4915 35.2876L39.703 31.8715Z" fill="#FFB9B9"/>
<path d="M18.7826 37.1737C18.7826 44.3232 21.9378 44.5453 27.0777 44.5453C32.2177 44.5453 37.3961 44.3232 37.3961 37.1737C37.3961 30.0241 33.2293 24.2283 28.0893 24.2283C22.9494 24.2283 18.7826 30.0241 18.7826 37.1737Z" fill="#2F2E41"/>
<path d="M31.3982 37.0876C31.3982 37.0876 30.661 42.4815 34.1625 42.8411C37.6641 43.2007 22.7365 44.2795 22.7365 44.2795C22.7365 44.2795 26.6066 40.8634 24.5794 38.1664C22.5522 35.4695 31.3982 37.0876 31.3982 37.0876Z" fill="#FFB9B9"/>
<path d="M50.0133 133.457L51.3033 144.065C51.3033 144.065 57.7536 151.796 53.6991 151.257C49.6447 150.717 47.0646 151.371 47.0646 150.652C47.0646 149.933 46.9693 147.363 46.4164 147.363C45.8635 147.363 45.406 151.421 45.406 151.421C45.406 151.421 43.7474 151.299 43.5631 151.119C43.3788 150.939 43.1945 140.649 43.1945 140.649C43.1945 140.649 42.6416 137.592 43.7474 136.154C44.8531 134.715 44.6688 133.457 44.6688 133.457L50.0133 133.457Z" fill="#2F2E41"/>
<path d="M20.6597 133.341L21.9497 143.949C21.9497 143.949 28.3999 151.68 24.3455 151.141C20.2911 150.601 17.711 151.255 17.711 150.536C17.711 149.817 17.6157 147.247 17.0628 147.247C16.5099 147.247 16.0524 151.305 16.0524 151.305C16.0524 151.305 14.3937 151.183 14.2094 151.003C14.0251 150.823 13.8409 140.533 13.8409 140.533C13.8409 140.533 13.288 137.476 14.3937 136.038C15.4995 134.599 15.3152 133.341 15.3152 133.341H20.6597Z" fill="#2F2E41"/>
<path d="M40.4312 70.3464C40.4312 70.3464 46.3286 86.708 46.6972 90.3039C47.0658 93.8998 46.3286 106.126 46.3286 106.126C46.3286 106.126 51.673 127.251 50.5673 127.43C49.4615 127.61 43.3037 128.463 43.1195 127.564C42.9352 126.665 42.2781 125.273 42.4624 124.734C42.6467 124.194 41.9096 122.216 41.9096 121.138C41.9096 120.059 39.3255 114.397 39.5098 113.498C39.6941 112.599 36.3768 99.2938 35.8239 98.215C35.2711 97.1362 33.7967 89.5847 33.7967 89.5847C33.7967 89.5847 25.5036 111.7 25.3193 112.239C25.135 112.779 24.3978 113.678 24.7664 113.857C25.135 114.037 24.2135 115.296 24.2135 115.296C24.2135 115.296 22.3039 122.756 22.3039 123.115C22.3039 123.475 22.6725 127.545 21.9353 127.725C21.1981 127.905 13.6683 127.893 13.2997 126.635C12.9311 125.376 17.2105 110.801 17.2105 110.801C17.2105 110.801 20.3434 101.631 19.422 99.2938C18.5005 96.9564 20.3434 82.9322 21.0806 81.8535C21.8178 80.7747 22.002 74.302 22.002 74.302L40.4312 70.3464Z" fill="#2F2E41"/>
<path d="M28.1833 40.0505C31.4404 40.0505 34.0807 37.4745 34.0807 34.297C34.0807 31.1194 31.4404 28.5435 28.1833 28.5435C24.9263 28.5435 22.286 31.1194 22.286 34.297C22.286 37.4745 24.9263 40.0505 28.1833 40.0505Z" fill="#FFB9B9"/>
<path d="M31.415 41.5766C31.415 41.5766 24.7805 41.7564 24.4119 41.217C24.0433 40.6776 14.8287 42.4756 14.8287 46.0715C14.8287 49.6675 20.1732 63.6916 20.1732 63.6916C20.1732 63.6916 22.2004 73.7603 21.6475 74.839C21.0947 75.9178 42.1039 72.5017 41.5511 70.7037C40.9982 68.9057 37.8652 64.9502 41.9196 61.5341C45.9741 58.1179 47.6327 54.522 47.6327 54.522L42.8411 42.116C42.8411 42.116 38.0495 41.3968 36.9438 42.116C35.838 42.8352 31.415 41.5766 31.415 41.5766Z" fill="#0174CE"/>
<path d="M46.3452 55.4243L47.6353 54.5253C47.6353 54.5253 59.6142 42.2991 56.4813 39.9618C53.3483 37.6244 48.741 35.4668 46.5295 35.287C44.318 35.1072 42.4751 33.4891 42.4751 33.4891C42.4751 33.4891 40.0793 29.3537 38.2364 32.0507C36.3935 34.7476 34.3662 35.6466 36.9463 36.5456C39.5264 37.4446 41.185 37.085 42.4751 37.984C43.7651 38.883 48.741 40.3214 46.5295 40.8607C45.2613 41.1606 44.0267 41.5822 42.8437 42.1193L40.4479 46.2546L46.3452 55.4243Z" fill="#0174CE"/>
<path d="M25.5055 85.8066C25.5055 85.8066 30.2971 92.6389 26.7955 92.2793C23.294 91.9197 21.6354 87.245 21.6354 87.245L25.5055 85.8066Z" fill="#FFB9B9"/>
<path d="M16.1008 45.1755L14.8108 46.0745C14.8108 46.0745 10.572 68.7289 14.8108 74.6622C19.0495 80.5955 19.4181 80.2359 19.4181 80.2359C19.4181 80.2359 20.1552 79.6965 20.5238 83.2925C20.8924 86.8884 20.3395 88.3268 21.4453 88.3268C22.551 88.3268 27.5269 87.248 27.1583 86.349C26.7897 85.4501 24.3939 80.2359 24.2096 78.9774C24.0254 77.7188 23.1039 74.842 22.7353 73.2239C22.3667 71.6057 24.3939 70.7067 23.4725 67.2906C22.551 63.8744 21.261 57.7613 21.261 56.5027C21.261 55.2442 16.1008 45.1755 16.1008 45.1755Z" fill="#0174CE"/>
<path d="M22.4612 29.1747C22.4612 31.1111 25.184 32.6808 28.5428 32.6808C31.9016 32.6808 34.993 33.7181 34.993 31.7818C34.993 29.8455 31.9016 25.6687 28.5428 25.6687C25.184 25.6687 22.4612 27.2384 22.4612 29.1747Z" fill="#2F2E41"/>
<path d="M37.3421 38.3884C37.3421 38.3884 37.5904 44.9063 30.9515 44.5467C24.3127 44.1871 31.8487 38.9753 31.8487 38.9753L37.3421 38.3884Z" fill="#2F2E41"/>
<path d="M191.12 150.846H11V151.406H191.12V150.846Z" fill="#3F3D56"/>
</svg>
