<svg width="250" height="160" viewBox="0 0 250 160" fill="none" xmlns="http://www.w3.org/2000/svg">
<path d="M242.377 104.639H73.1968V105.099H242.377V104.639Z" fill="#3F3D56"/>
<path d="M160.833 31.291H100.785V30.0576H73.5563V31.291H13.2602C12.7268 31.291 12.1986 31.3957 11.7058 31.5992C11.213 31.8026 10.7652 32.1007 10.388 32.4766C10.0109 32.8525 9.71168 33.2987 9.50755 33.7898C9.30343 34.281 9.19836 34.8073 9.19836 35.3389V117.281C9.19836 118.354 9.6263 119.384 10.388 120.143C11.1498 120.902 12.1829 121.329 13.2602 121.329H160.833C161.91 121.329 162.944 120.902 163.705 120.143C164.467 119.384 164.895 118.354 164.895 117.281V35.3389C164.895 34.8073 164.79 34.281 164.586 33.7898C164.382 33.2987 164.083 32.8525 163.705 32.4766C163.328 32.1007 162.88 31.8026 162.388 31.5992C161.895 31.3957 161.367 31.291 160.833 31.291V31.291Z" fill="#3F3D56"/>
<path d="M159.427 38.443H14.6219V119.847H159.427V38.443Z" fill="#0181E4"/>
<path d="M86.9238 36.2221C87.744 36.2221 88.409 35.5595 88.409 34.7421C88.409 33.9246 87.744 33.262 86.9238 33.262C86.1035 33.262 85.4386 33.9246 85.4386 34.7421C85.4386 35.5595 86.1035 36.2221 86.9238 36.2221Z" fill="#0181E4"/>
<path opacity="0.1" d="M118.015 119.847H14.6219V38.443L118.015 119.847Z" fill="black"/>
<path d="M37.2808 113.756C44.9682 113.756 51.2 107.546 51.2 99.8852C51.2 92.2244 44.9682 86.014 37.2808 86.014C29.5935 86.014 23.3617 92.2244 23.3617 99.8852C23.3617 107.546 29.5935 113.756 37.2808 113.756Z" fill="#F2F2F2"/>
<path d="M134.234 82.3464H120.707V85.1631H134.234V82.3464Z" fill="#3F3D56"/>
<path d="M150.576 60.4178H104.344V61.625H150.576V60.4178Z" fill="#3F3D56"/>
<path d="M150.576 64.2399H104.344V65.447H150.576V64.2399Z" fill="#3F3D56"/>
<path d="M150.576 68.062H104.344V69.2691H150.576V68.062Z" fill="#3F3D56"/>
<path d="M150.576 71.884H104.344V73.0912H150.576V71.884Z" fill="#3F3D56"/>
<path d="M150.576 75.7061H104.344V76.9132H150.576V75.7061Z" fill="#3F3D56"/>
<path d="M150.565 40.0953H144.912V45.7287H150.565V40.0953Z" fill="#F2F2F2"/>
<path d="M153.202 48.3412H146.338V41.5006H153.202V48.3412ZM146.636 48.0438H152.903V41.7981H146.636V48.0438Z" fill="#3F3D56"/>
<path d="M168.951 118.37H154.819V117.355C154.819 117.329 154.813 117.303 154.803 117.278C154.793 117.254 154.778 117.232 154.76 117.213C154.741 117.194 154.719 117.18 154.694 117.169C154.67 117.159 154.643 117.154 154.617 117.154H149.772C149.745 117.154 149.719 117.159 149.694 117.169C149.67 117.18 149.648 117.194 149.629 117.213C149.61 117.232 149.595 117.254 149.585 117.278C149.575 117.303 149.57 117.329 149.57 117.355V118.37H146.541V117.355C146.541 117.329 146.536 117.303 146.526 117.278C146.516 117.254 146.501 117.232 146.482 117.213C146.463 117.194 146.441 117.18 146.417 117.169C146.392 117.159 146.366 117.154 146.339 117.154H141.494C141.468 117.154 141.441 117.159 141.417 117.169C141.392 117.18 141.37 117.194 141.351 117.213C141.333 117.232 141.318 117.254 141.308 117.278C141.298 117.303 141.292 117.329 141.292 117.355V118.37H138.264V117.355C138.264 117.329 138.259 117.303 138.249 117.278C138.238 117.254 138.224 117.232 138.205 117.213C138.186 117.194 138.164 117.18 138.139 117.169C138.115 117.159 138.089 117.154 138.062 117.154H133.217C133.19 117.154 133.164 117.159 133.14 117.169C133.115 117.18 133.093 117.194 133.074 117.213C133.055 117.232 133.04 117.254 133.03 117.278C133.02 117.303 133.015 117.329 133.015 117.355V118.37H129.987V117.355C129.987 117.329 129.981 117.303 129.971 117.278C129.961 117.254 129.946 117.232 129.928 117.213C129.909 117.194 129.887 117.18 129.862 117.169C129.838 117.159 129.811 117.154 129.785 117.154H124.939C124.913 117.154 124.887 117.159 124.862 117.169C124.838 117.18 124.815 117.194 124.797 117.213C124.778 117.232 124.763 117.254 124.753 117.278C124.743 117.303 124.738 117.329 124.738 117.355V118.37H121.709V117.355C121.709 117.329 121.704 117.303 121.694 117.278C121.684 117.254 121.669 117.232 121.65 117.213C121.631 117.194 121.609 117.18 121.585 117.169C121.56 117.159 121.534 117.154 121.507 117.154H116.662C116.636 117.154 116.609 117.159 116.585 117.169C116.56 117.18 116.538 117.194 116.519 117.213C116.501 117.232 116.486 117.254 116.476 117.278C116.465 117.303 116.46 117.329 116.46 117.355V118.37H113.432V117.355C113.432 117.329 113.427 117.303 113.417 117.278C113.406 117.254 113.392 117.232 113.373 117.213C113.354 117.194 113.332 117.18 113.307 117.169C113.283 117.159 113.257 117.154 113.23 117.154H108.385C108.358 117.154 108.332 117.159 108.308 117.169C108.283 117.18 108.261 117.194 108.242 117.213C108.223 117.232 108.208 117.254 108.198 117.278C108.188 117.303 108.183 117.329 108.183 117.355V118.37H105.155V117.355C105.155 117.329 105.149 117.303 105.139 117.278C105.129 117.254 105.114 117.232 105.095 117.213C105.077 117.194 105.054 117.18 105.03 117.169C105.005 117.159 104.979 117.154 104.953 117.154H66.998C66.9715 117.154 66.9453 117.159 66.9208 117.169C66.8963 117.18 66.874 117.194 66.8553 117.213C66.8365 117.232 66.8217 117.254 66.8115 117.278C66.8014 117.303 66.7962 117.329 66.7962 117.355V118.37H63.7679V117.355C63.7679 117.329 63.7626 117.303 63.7525 117.278C63.7423 117.254 63.7275 117.232 63.7087 117.213C63.69 117.194 63.6677 117.18 63.6432 117.169C63.6187 117.159 63.5925 117.154 63.566 117.154H58.7207C58.6942 117.154 58.6679 117.159 58.6434 117.169C58.6189 117.18 58.5967 117.194 58.5779 117.213C58.5592 117.232 58.5443 117.254 58.5342 117.278C58.524 117.303 58.5188 117.329 58.5188 117.355V118.37H55.4905V117.355C55.4905 117.329 55.4853 117.303 55.4751 117.278C55.465 117.254 55.4501 117.232 55.4314 117.213C55.4126 117.194 55.3904 117.18 55.3659 117.169C55.3414 117.159 55.3151 117.154 55.2886 117.154H50.4433C50.4168 117.154 50.3906 117.159 50.3661 117.169C50.3416 117.18 50.3193 117.194 50.3006 117.213C50.2818 117.232 50.267 117.254 50.2568 117.278C50.2467 117.303 50.2415 117.329 50.2415 117.355V118.37H47.2132V117.355C47.2132 117.329 47.2079 117.303 47.1978 117.278C47.1876 117.254 47.1728 117.232 47.154 117.213C47.1353 117.194 47.113 117.18 47.0885 117.169C47.064 117.159 47.0378 117.154 47.0113 117.154H42.166C42.1395 117.154 42.1132 117.159 42.0887 117.169C42.0642 117.18 42.042 117.194 42.0232 117.213C42.0045 117.232 41.9896 117.254 41.9795 117.278C41.9693 117.303 41.9641 117.329 41.9641 117.355V118.37H38.9358V117.355C38.9358 117.329 38.9306 117.303 38.9205 117.278C38.9103 117.254 38.8954 117.232 38.8767 117.213C38.8579 117.194 38.8357 117.18 38.8112 117.169C38.7867 117.159 38.7604 117.154 38.7339 117.154H33.8886C33.8621 117.154 33.8359 117.159 33.8114 117.169C33.7869 117.18 33.7646 117.194 33.7459 117.213C33.7271 117.232 33.7123 117.254 33.7021 117.278C33.692 117.303 33.6868 117.329 33.6868 117.355V118.37H30.6585V117.355C30.6585 117.329 30.6532 117.303 30.6431 117.278C30.633 117.254 30.6181 117.232 30.5993 117.213C30.5806 117.194 30.5583 117.18 30.5338 117.169C30.5093 117.159 30.4831 117.154 30.4566 117.154H25.6113C25.5848 117.154 25.5585 117.159 25.534 117.169C25.5095 117.18 25.4873 117.194 25.4685 117.213C25.4498 117.232 25.4349 117.254 25.4248 117.278C25.4146 117.303 25.4094 117.329 25.4094 117.355V118.37H22.3811V117.355C22.3811 117.329 22.3759 117.303 22.3657 117.278C22.3556 117.254 22.3407 117.232 22.322 117.213C22.3032 117.194 22.281 117.18 22.2565 117.169C22.232 117.159 22.2057 117.154 22.1792 117.154H17.3339C17.3074 117.154 17.2812 117.159 17.2567 117.169C17.2322 117.18 17.2099 117.194 17.1912 117.213C17.1724 117.232 17.1576 117.254 17.1474 117.278C17.1373 117.303 17.1321 117.329 17.1321 117.355V118.37H7.84528C6.56023 118.37 5.32782 118.879 4.41915 119.784C3.51048 120.69 3 121.918 3 123.199V125.382C3 126.663 3.51049 127.891 4.41915 128.796C5.32782 129.702 6.56023 130.211 7.84528 130.211H168.951C170.236 130.211 171.468 129.702 172.377 128.796C173.286 127.891 173.796 126.663 173.796 125.382V123.199C173.796 121.918 173.286 120.69 172.377 119.784C171.468 118.879 170.236 118.37 168.951 118.37Z" fill="#3F3D56"/>
<path d="M40.655 108.552C37.1857 108.552 33.7943 107.527 30.9096 105.606C28.025 103.685 25.7767 100.955 24.449 97.7609C23.1214 94.5667 22.774 91.0519 23.4508 87.6609C24.1277 84.27 25.7983 81.1552 28.2515 78.7104C30.7047 76.2657 33.8302 74.6008 37.2329 73.9263C40.6355 73.2518 44.1625 73.598 47.3677 74.9211C50.573 76.2441 53.3125 78.4847 55.24 81.3594C57.1674 84.2341 58.1962 87.6139 58.1962 91.0712C58.1909 95.7058 56.3412 100.149 53.0527 103.426C49.7642 106.703 45.3056 108.547 40.655 108.552ZM40.655 74.0504C37.277 74.0504 33.9748 75.0487 31.1661 76.919C28.3573 78.7892 26.1682 81.4475 24.8755 84.5577C23.5828 87.6678 23.2445 91.0901 23.9036 94.3918C24.5626 97.6936 26.1893 100.726 28.5779 103.107C30.9665 105.487 34.0098 107.108 37.3229 107.765C40.636 108.422 44.0702 108.085 47.1911 106.796C50.312 105.508 52.9794 103.327 54.8562 100.528C56.7329 97.7284 57.7346 94.4376 57.7346 91.0712C57.7295 86.5586 55.9284 82.2323 52.7264 79.0414C49.5245 75.8504 45.1832 74.0555 40.655 74.0504V74.0504Z" fill="#3F3D56"/>
<path d="M197.135 34.4897H138.28V34.9497H197.135V34.4897Z" fill="#3F3D56"/>
<path d="M193.183 32.0575H186.72V38.4978H193.183V32.0575Z" fill="#0181E4"/>
<path d="M197.109 34.8204H189.262V27H197.109V34.8204ZM189.603 34.4804H196.768V27.34H189.603V34.4804Z" fill="#3F3D56"/>
<path d="M246.986 55.0497H246.437V40.0618C246.437 38.9227 246.212 37.7946 245.775 36.7422C245.337 35.6897 244.696 34.7335 243.888 33.928C243.079 33.1224 242.12 32.4835 241.064 32.0475C240.008 31.6116 238.876 31.3872 237.733 31.3872H205.869C204.726 31.3872 203.594 31.6116 202.538 32.0475C201.482 32.4835 200.522 33.1224 199.714 33.928C198.906 34.7335 198.265 35.6897 197.827 36.7422C197.39 37.7946 197.165 38.9227 197.165 40.0618V122.286C197.165 123.426 197.39 124.554 197.827 125.606C198.265 126.659 198.906 127.615 199.714 128.42C200.522 129.226 201.482 129.865 202.538 130.301C203.594 130.737 204.726 130.961 205.869 130.961H237.733C238.876 130.961 240.008 130.737 241.064 130.301C242.12 129.865 243.079 129.226 243.888 128.42C244.696 127.615 245.337 126.659 245.775 125.606C246.212 124.554 246.437 123.426 246.437 122.286V65.7183H246.986V55.0497Z" fill="#3F3D56"/>
<path d="M244.598 40.5745V122.679C244.599 124.397 243.914 126.045 242.695 127.26C241.476 128.476 239.823 129.158 238.099 129.159H206.081C204.357 129.158 202.704 128.476 201.485 127.26C200.266 126.045 199.582 124.397 199.582 122.679V40.5745C199.582 38.8568 200.267 37.2094 201.486 35.9947C202.705 34.7801 204.358 34.0976 206.081 34.0974H209.966C209.775 34.5647 209.702 35.0717 209.754 35.5737C209.805 36.0757 209.98 36.5573 210.263 36.9761C210.545 37.3949 210.927 37.738 211.374 37.9753C211.821 38.2125 212.319 38.3366 212.826 38.3365H231.08C231.586 38.3366 232.085 38.2125 232.532 37.9753C232.979 37.738 233.36 37.3949 233.643 36.9761C233.925 36.5573 234.1 36.0757 234.152 35.5737C234.204 35.0717 234.131 34.5647 233.94 34.0974H238.099C239.822 34.0976 241.476 34.7801 242.694 35.9947C243.913 37.2094 244.598 38.8568 244.598 40.5745V40.5745Z" fill="#0181E4"/>
<path d="M226.847 88.2316H217.309V91.0483H226.847V88.2316Z" fill="#3F3D56"/>
<path d="M238.379 66.303H205.78V67.5102H238.379V66.303Z" fill="#3F3D56"/>
<path d="M238.379 70.1251H205.78V71.3322H238.379V70.1251Z" fill="#3F3D56"/>
<path d="M238.379 73.9472H205.78V75.1543H238.379V73.9472Z" fill="#3F3D56"/>
<path d="M238.379 77.7692H205.78V78.9764H238.379V77.7692Z" fill="#3F3D56"/>
<path d="M238.379 81.5913H205.78V82.7984H238.379V81.5913Z" fill="#3F3D56"/>
<path d="M223.241 50.2736H217.588V55.907H223.241V50.2736Z" fill="#F2F2F2"/>
<path d="M219.727 51.6789V58.5194H226.591V51.6789H219.727ZM226.293 58.2227H220.024V51.9756H226.293V58.2227Z" fill="#3F3D56"/>
<path opacity="0.1" d="M244.598 113.914V122.682C244.599 124.4 243.914 126.048 242.695 127.263C241.476 128.479 239.823 129.161 238.099 129.162H206.081C204.357 129.161 202.704 128.479 201.485 127.263C200.266 126.048 199.582 124.4 199.582 122.682V78.4718L226.556 99.7087L227.018 100.072L232.035 104.021L232.504 104.392L244.598 113.914Z" fill="black"/>
<path d="M219.314 126.495C224.906 126.495 229.439 121.978 229.439 116.405C229.439 110.832 224.906 106.315 219.314 106.315C213.723 106.315 209.189 110.832 209.189 116.405C209.189 121.978 213.723 126.495 219.314 126.495Z" fill="#F2F2F2"/>
<path d="M222.318 124.188C219.807 124.188 217.353 123.446 215.265 122.056C213.177 120.666 211.55 118.69 210.59 116.379C209.629 114.067 209.377 111.524 209.867 109.07C210.357 106.616 211.566 104.362 213.341 102.592C215.117 100.823 217.379 99.6182 219.841 99.1301C222.304 98.642 224.856 98.8925 227.176 99.85C229.495 100.807 231.478 102.429 232.873 104.509C234.267 106.59 235.012 109.036 235.012 111.538C235.008 114.892 233.669 118.107 231.29 120.479C228.91 122.85 225.683 124.184 222.318 124.188V124.188ZM222.318 99.347C219.898 99.347 217.533 100.062 215.521 101.402C213.51 102.741 211.942 104.645 211.016 106.872C210.09 109.1 209.848 111.551 210.32 113.916C210.792 116.281 211.957 118.453 213.668 120.158C215.379 121.863 217.558 123.024 219.931 123.494C222.304 123.964 224.764 123.723 226.999 122.8C229.234 121.878 231.145 120.315 232.489 118.31C233.833 116.306 234.55 113.949 234.55 111.538C234.547 108.306 233.257 105.207 230.963 102.922C228.67 100.636 225.561 99.3507 222.318 99.347Z" fill="#3F3D56"/>
</svg>
