<svg width="250" height="160" viewBox="0 0 250 160" fill="none" xmlns="http://www.w3.org/2000/svg">
<path d="M125 134.058C180.229 134.058 225 133.018 225 131.736C225 130.453 180.229 129.413 125 129.413C69.7715 129.413 25 130.453 25 131.736C25 133.018 69.7715 134.058 125 134.058Z" fill="#E6E6E6"/>
<path d="M213.347 54.8683H164.303V54.6115C164.303 54.5124 164.284 54.4144 164.246 54.3229C164.208 54.2314 164.152 54.1483 164.082 54.0783C164.012 54.0083 163.929 53.9527 163.838 53.9148C163.746 53.8769 163.648 53.8574 163.549 53.8574H142.819C142.72 53.8574 142.622 53.8769 142.531 53.9148C142.439 53.9527 142.356 54.0083 142.286 54.0783C142.216 54.1483 142.16 54.2314 142.122 54.3229C142.085 54.4144 142.065 54.5124 142.065 54.6115V54.8683H92.8194C92.3837 54.8683 91.9523 54.9541 91.5499 55.1208C91.1474 55.2875 90.7817 55.5319 90.4736 55.8399C90.1656 56.148 89.9212 56.5137 89.7545 56.9162C89.5878 57.3187 89.502 57.75 89.502 58.1857V125.341C89.502 125.777 89.5878 126.208 89.7545 126.611C89.9212 127.013 90.1656 127.379 90.4736 127.687C90.7817 127.995 91.1474 128.24 91.5499 128.406C91.9523 128.573 92.3837 128.659 92.8194 128.659H213.347C214.227 128.659 215.07 128.309 215.693 127.687C216.315 127.065 216.664 126.221 216.664 125.341V58.1857C216.664 57.3059 216.315 56.4621 215.693 55.8399C215.07 55.2178 214.227 54.8683 213.347 54.8683Z" fill="#3F3D56"/>
<path d="M95.4713 60.553C95.37 60.5542 95.2732 60.5955 95.2022 60.6679C95.1313 60.7403 95.0919 60.8378 95.0928 60.9392V125.927C95.0919 126.029 95.1313 126.126 95.2022 126.199C95.2732 126.271 95.37 126.312 95.4713 126.314H210.722C210.824 126.312 210.92 126.271 210.991 126.199C211.062 126.126 211.102 126.029 211.101 125.927V60.9392C211.102 60.8378 211.062 60.7403 210.991 60.6679C210.92 60.5955 210.824 60.5542 210.722 60.553H95.4713Z" fill="white"/>
<path d="M152.995 58.9079C153.665 58.9079 154.208 58.3649 154.208 57.6949C154.208 57.025 153.665 56.4819 152.995 56.4819C152.325 56.4819 151.782 57.025 151.782 57.6949C151.782 58.3649 152.325 58.9079 152.995 58.9079Z" fill="#0174CE"/>
<path d="M218.887 124.132H207.345V122.94C207.345 122.874 207.271 122.821 207.18 122.821H203.222C203.131 122.821 203.058 122.874 203.058 122.94V124.132H200.584V122.94C200.584 122.874 200.51 122.821 200.419 122.821H196.462C196.371 122.821 196.297 122.874 196.297 122.94V124.132H193.824V122.94C193.824 122.874 193.75 122.821 193.659 122.821H189.702C189.611 122.821 189.537 122.874 189.537 122.94V124.132H187.064V122.94C187.064 122.874 186.99 122.821 186.899 122.821H182.941C182.85 122.821 182.776 122.874 182.776 122.94V124.132H180.303V122.94C180.303 122.874 180.229 122.821 180.138 122.821H176.181C176.09 122.821 176.016 122.874 176.016 122.94V124.132H173.543V122.94C173.543 122.874 173.469 122.821 173.378 122.821H169.421C169.33 122.821 169.256 122.874 169.256 122.94V124.132H166.782V122.94C166.782 122.874 166.709 122.821 166.618 122.821H135.619C135.528 122.821 135.454 122.874 135.454 122.94V124.132H132.981V122.94C132.981 122.874 132.907 122.821 132.816 122.821H128.858C128.767 122.821 128.694 122.874 128.694 122.94V124.132H126.22V122.94C126.22 122.874 126.146 122.821 126.055 122.821H122.098C122.007 122.821 121.933 122.874 121.933 122.94V124.132H119.46V122.94C119.46 122.874 119.386 122.821 119.295 122.821H115.338C115.247 122.821 115.173 122.874 115.173 122.94V124.132H112.699V122.94C112.699 122.874 112.626 122.821 112.535 122.821H108.577C108.486 122.821 108.412 122.874 108.412 122.94V124.132H105.939V122.94C105.939 122.874 105.865 122.821 105.774 122.821H101.817C101.726 122.821 101.652 122.874 101.652 122.94V124.132H99.1788V122.94C99.1788 122.874 99.1049 122.821 99.0139 122.821H95.0566C94.9655 122.821 94.8917 122.874 94.8917 122.94V124.132H87.3069C85.1213 124.132 83.3496 125.405 83.3496 126.976V128.263C83.3496 129.834 85.1213 131.107 87.3069 131.107H218.887C221.072 131.107 222.844 129.834 222.844 128.263V126.976C222.844 125.405 221.072 124.132 218.887 124.132Z" fill="#3F3D56"/>
<path d="M197.483 73.3032H155.37C154.926 73.3032 154.565 73.6635 154.565 74.1079V114.611C154.565 115.056 154.926 115.416 155.37 115.416H197.483C197.927 115.416 198.287 115.056 198.287 114.611V74.1079C198.287 73.6635 197.927 73.3032 197.483 73.3032Z" fill="#E6E6E6"/>
<path d="M63.6551 35.2966C63.7479 37.1862 63.6427 39.0803 63.3412 40.948C63.3412 40.948 61.1434 45.9714 63.6551 48.1691C66.1669 50.3669 70.8763 41.5759 70.8763 41.5759C70.5505 39.6254 70.3627 37.7918 70.8763 36.5525L63.6551 35.2966Z" fill="#FFB8B8"/>
<path d="M67.1178 96.8323V103.739C67.1178 103.739 66.1759 116.612 67.1178 119.752L66.8039 125.717H70.2575L71.1994 118.496C71.1994 118.496 74.025 109.391 73.0831 103.739L73.7111 96.8323H67.1178Z" fill="#FFB8B8"/>
<path d="M62.0864 96.8323V103.739C62.0864 103.739 63.0283 116.612 62.0864 119.752L62.4004 125.717H58.9468L58.0049 118.496C58.0049 118.496 55.1792 109.391 56.1211 103.739L55.4932 96.8323H62.0864Z" fill="#FFB8B8"/>
<path d="M54.087 70.9282C54.087 70.9282 52.2032 82.8589 53.459 89.766C54.7149 96.6732 54.7149 98.871 54.7149 98.871L62.564 98.557L64.7617 85.6845L66.6455 98.871L76.0644 97.3012C76.0644 97.3012 76.0644 87.2544 76.3784 85.0566C76.6924 82.8589 76.6924 70.3003 76.6924 70.3003L54.087 70.9282Z" fill="#2F2E41"/>
<path d="M70.8633 125.714C70.8633 125.714 67.4097 123.517 65.8399 125.714V129.482C65.8399 129.482 64.584 132.308 68.9795 131.68C73.375 131.052 71.8052 128.854 71.8052 128.854L70.8633 125.714Z" fill="#2F2E41"/>
<path d="M58.3189 125.714C58.3189 125.714 61.7725 123.517 63.3423 125.714V129.482C63.3423 129.482 64.5982 132.308 60.2027 131.68C55.8072 131.052 57.377 128.854 57.377 128.854L58.3189 125.714Z" fill="#2F2E41"/>
<path d="M67.7431 38.4343C70.5175 38.4343 72.7666 36.1852 72.7666 33.4109C72.7666 30.6365 70.5175 28.3875 67.7431 28.3875C64.9688 28.3875 62.7197 30.6365 62.7197 33.4109C62.7197 36.1852 64.9688 38.4343 67.7431 38.4343Z" fill="#FFB8B8"/>
<path d="M65.5463 45.3401L63.3867 40.2588L61.1509 41.2585L58.3252 57.5847L58.6392 73.2828C58.6392 73.2828 73.0815 72.6549 74.9653 73.5968C76.849 74.5387 72.7675 42.8284 72.7675 42.8284L70.8837 40.4786L65.5463 45.3401Z" fill="#0174CE"/>
<path d="M63.7286 38.4338C63.7286 38.4338 58.9541 39.6897 58.9541 41.5735C58.9541 41.5735 54.2446 42.5154 54.2446 43.4573C54.2446 44.3991 53.9306 68.2604 53.9306 68.2604C53.9306 68.2604 51.105 73.5978 53.3027 77.9933L52.9888 80.505L59.268 81.1329L63.6635 42.5154L63.7286 38.4338Z" fill="#2F2E41"/>
<path d="M70.5078 38.4338C70.5078 38.4338 75.2824 39.6897 75.2824 41.5735C75.2824 41.5735 79.9918 42.5154 79.9918 43.4573C79.9918 44.3991 80.3058 68.2604 80.3058 68.2604C80.3058 68.2604 83.1315 73.5978 80.9337 77.9933L81.2477 80.505L74.9684 81.1329L70.5729 42.5154L70.5078 38.4338Z" fill="#2F2E41"/>
<path d="M71.8104 26.8212C71.8104 26.8212 72.1243 25.5653 70.5545 26.1932C70.5545 26.1932 68.6707 23.9955 66.787 25.5653C66.787 25.5653 63.0194 24.9374 63.0194 28.077C63.0194 31.2167 62.8418 32.2533 62.8418 32.2533C62.8418 32.2533 63.9613 29.3329 66.159 29.6468C67.5021 29.8387 68.2589 29.6788 68.6444 29.5254C69.0611 29.3471 69.5282 29.3249 69.9599 29.463C70.2311 29.5548 70.48 29.7023 70.6906 29.8962C70.9012 30.0901 71.0687 30.326 71.1825 30.5887C71.3758 31.0347 71.6033 31.465 71.863 31.8759C72.2291 32.4233 72.526 33.0139 72.7468 33.6343L73.3802 29.9608C73.3802 29.9608 73.6942 28.077 72.7523 27.4491C72.7523 27.4491 73.0662 26.5072 71.8104 26.8212Z" fill="#2F2E41"/>
<path d="M167.217 80.3284H82.666V107.873H167.217V80.3284Z" fill="#0174CE"/>
<path d="M48.4178 76.2661C48.4178 76.2661 46.5341 83.4873 49.3597 82.8594C52.1854 82.2314 51.5575 75.9522 51.5575 75.9522L48.4178 76.2661Z" fill="#FFB8B8"/>
<path d="M85.7919 76.2661C85.7919 76.2661 87.6756 83.4873 84.85 82.8594C82.0243 82.2314 82.6522 75.9522 82.6522 75.9522L85.7919 76.2661Z" fill="#FFB8B8"/>
<path d="M55.8029 43.4603L54.9363 42.7856C54.9363 42.7856 53.9191 42.8323 53.6051 43.4603C53.2912 44.0882 48.2678 59.7864 48.2678 59.7864C48.2678 59.7864 46.6979 67.9494 47.6398 72.9729L47.9538 76.7404H52.3493L52.0353 70.7751L55.175 58.8445L55.8029 43.4603Z" fill="#2F2E41"/>
<path d="M78.418 43.4603L79.2846 42.7856C79.2846 42.7856 80.3017 42.8323 80.6157 43.4603C80.9297 44.0882 85.9531 59.7864 85.9531 59.7864C85.9531 59.7864 87.5229 67.9494 86.581 72.9729L86.2671 76.7404H81.8716L82.1855 70.7751L79.0459 58.8445L78.418 43.4603Z" fill="#2F2E41"/>
<path d="M103.863 83.8013H99.0723V88.5917H103.863V83.8013Z" fill="white"/>
<path d="M150.794 85.9558H112.231V86.4349H150.794V85.9558Z" fill="white"/>
<path d="M103.863 91.7053H99.0723V96.4958H103.863V91.7053Z" fill="white"/>
<path d="M150.794 93.8599H112.231V94.3389H150.794V93.8599Z" fill="white"/>
<path d="M103.863 99.6094H99.0723V104.4H103.863V99.6094Z" fill="white"/>
<path d="M150.794 101.764H112.231V102.243H150.794V101.764Z" fill="white"/>
</svg>
