<svg width="814" height="768" viewBox="0 0 814 768" fill="none" xmlns="http://www.w3.org/2000/svg">
<g clip-path="url(#clip0)">
<path d="M145 360.796L786.5 -34.2041L848.5 1.29589L691 517.796L145 360.796Z" fill="url(#paint0_linear)"/>
<path fill-rule="evenodd" clip-rule="evenodd" d="M617.485 616.929C589.417 666.633 588.018 751.341 523.116 754.988C452.769 758.941 411.776 652.342 340.243 632.509C270.805 613.257 205.874 684.599 141.88 649.287C80.7571 615.558 62.6214 538.005 59.9712 477.852C57.5137 422.07 91.2488 376.771 128.156 337.782C159.407 304.768 206.829 292.204 251.987 275.005C299.098 257.061 372.744 191.223 426.441 209.424C480.323 227.687 487.52 298.513 532.209 334.008C588.617 378.811 659.274 404.272 686.607 465.467C712.699 523.882 645.42 567.458 617.485 616.929Z" fill="url(#paint1_linear)"/>
<path d="M137.599 267.057C151.184 267.057 162.197 256.075 162.197 242.528C162.197 228.982 151.184 218 137.599 218C124.013 218 113 228.982 113 242.528C113 256.075 124.013 267.057 137.599 267.057Z" fill="#F8F8F8"/>
<path d="M185.197 232.528C185.197 245.52 174.635 256.057 161.599 256.057C148.563 256.057 138 245.52 138 232.528C138 219.537 148.563 209 161.599 209C174.635 209 185.197 219.537 185.197 232.528Z" stroke="#3F3D56" stroke-width="2"/>
<path d="M711.599 709.057C725.184 709.057 736.197 698.075 736.197 684.529C736.197 670.982 725.184 660 711.599 660C698.013 660 687 670.982 687 684.529C687 698.075 698.013 709.057 711.599 709.057Z" fill="#F8F8F8"/>
<path d="M759.197 674.529C759.197 687.52 748.635 698.057 735.599 698.057C722.563 698.057 712 687.52 712 674.529C712 661.537 722.563 651 735.599 651C748.635 651 759.197 661.537 759.197 674.529Z" stroke="#3F3D56" stroke-width="2"/>
<path d="M271.599 719.057C285.184 719.057 296.197 708.075 296.197 694.529C296.197 680.982 285.184 670 271.599 670C258.013 670 247 680.982 247 694.529C247 708.075 258.013 719.057 271.599 719.057Z" fill="#F8F8F8"/>
<path d="M319.197 684.529C319.197 697.52 308.635 708.057 295.599 708.057C282.563 708.057 272 697.52 272 684.529C272 671.537 282.563 661 295.599 661C308.635 661 319.197 671.537 319.197 684.529Z" stroke="#3F3D56" stroke-width="2"/>
<path d="M711.599 399.057C725.184 399.057 736.197 388.075 736.197 374.528C736.197 360.982 725.184 350 711.599 350C698.013 350 687 360.982 687 374.528C687 388.075 698.013 399.057 711.599 399.057Z" fill="#F8F8F8"/>
<path d="M759.197 364.528C759.197 377.52 748.635 388.057 735.599 388.057C722.563 388.057 712 377.52 712 364.528C712 351.537 722.563 341 735.599 341C748.635 341 759.197 351.537 759.197 364.528Z" stroke="#3F3D56" stroke-width="2"/>
<line x1="445.707" y1="290.184" x2="550.054" y2="174.202" stroke="#F8F8F8" stroke-width="2" stroke-linecap="round"/>
<rect x="538.01" y="160.685" width="38" height="38" transform="rotate(-48.0231 538.01 160.685)" stroke="#F8F8F8" stroke-width="2"/>
<line x1="251.088" y1="697.983" x2="95.0751" y2="697.983" stroke="#F8F8F8" stroke-width="2" stroke-linecap="round"/>
<rect x="93.0815" y="715.977" width="38" height="38" transform="rotate(180 93.0815 715.977)" stroke="#F8F8F8" stroke-width="2"/>
<line x1="153.046" y1="233.014" x2="303.37" y2="191.27" stroke="#F8F8F8" stroke-width="2" stroke-linecap="round"/>
<rect x="300.476" y="173.399" width="38" height="38" transform="rotate(-15.5198 300.476 173.399)" stroke="#F8F8F8" stroke-width="2"/>
<line x1="706.626" y1="384.08" x2="592.003" y2="278.243" stroke="#F8F8F8" stroke-width="2" stroke-linecap="round"/>
<rect x="578.332" y="290.111" width="38" height="38" transform="rotate(-137.282 578.332 290.111)" stroke="#F8F8F8" stroke-width="2"/>
<line x1="715" y1="691.919" x2="730.363" y2="536.665" stroke="#F8F8F8" stroke-width="2" stroke-linecap="round"/>
<rect x="712.653" y="532.909" width="38" height="38" transform="rotate(-84.3488 712.653 532.909)" stroke="#F8F8F8" stroke-width="2"/>
</g>
<defs>
<linearGradient id="paint0_linear" x1="836.081" y1="388.716" x2="334.76" y2="187.921" gradientUnits="userSpaceOnUse">
<stop stop-color="#959595" stop-opacity="0.42"/>
<stop offset="1" stop-color="white" stop-opacity="0"/>
</linearGradient>
<linearGradient id="paint1_linear" x1="620.488" y1="227.619" x2="433.161" y2="738.634" gradientUnits="userSpaceOnUse">
<stop stop-color="white"/>
<stop offset="1" stop-color="#FAFAFA"/>
</linearGradient>
<clipPath id="clip0">
<rect x="-672" y="-115" width="1712" height="969" fill="white"/>
</clipPath>
</defs>
</svg>
