<svg width="344" height="222" viewBox="0 0 344 222" fill="none" xmlns="http://www.w3.org/2000/svg">
<rect width="100" height="100" rx="15" fill="#323232"/>
<path d="M20.128 14.6H21.688V23H20.128V14.6ZM27.452 16.52C28.26 16.52 28.908 16.756 29.396 17.228C29.884 17.7 30.128 18.4 30.128 19.328V23H28.628V19.52C28.628 18.96 28.496 18.54 28.232 18.26C27.968 17.972 27.592 17.828 27.104 17.828C26.552 17.828 26.116 17.996 25.796 18.332C25.476 18.66 25.316 19.136 25.316 19.76V23H23.816V16.592H25.244V17.42C25.492 17.124 25.804 16.9 26.18 16.748C26.556 16.596 26.98 16.52 27.452 16.52ZM37.9137 16.592L35.1657 23H33.6177L30.8697 16.592H32.4297L34.4217 21.344L36.4737 16.592H37.9137ZM44.6994 19.832C44.6994 19.936 44.6914 20.084 44.6754 20.276H39.6474C39.7354 20.748 39.9634 21.124 40.3314 21.404C40.7074 21.676 41.1714 21.812 41.7234 21.812C42.4274 21.812 43.0074 21.58 43.4634 21.116L44.2674 22.04C43.9794 22.384 43.6154 22.644 43.1754 22.82C42.7354 22.996 42.2394 23.084 41.6874 23.084C40.9834 23.084 40.3634 22.944 39.8274 22.664C39.2914 22.384 38.8754 21.996 38.5794 21.5C38.2914 20.996 38.1474 20.428 38.1474 19.796C38.1474 19.172 38.2874 18.612 38.5674 18.116C38.8554 17.612 39.2514 17.22 39.7554 16.94C40.2594 16.66 40.8274 16.52 41.4594 16.52C42.0834 16.52 42.6394 16.66 43.1274 16.94C43.6234 17.212 44.0074 17.6 44.2794 18.104C44.5594 18.6 44.6994 19.176 44.6994 19.832ZM41.4594 17.72C40.9794 17.72 40.5714 17.864 40.2354 18.152C39.9074 18.432 39.7074 18.808 39.6354 19.28H43.2714C43.2074 18.816 43.0114 18.44 42.6834 18.152C42.3554 17.864 41.9474 17.72 41.4594 17.72ZM49.7763 16.52C50.5843 16.52 51.2323 16.756 51.7203 17.228C52.2083 17.7 52.4523 18.4 52.4523 19.328V23H50.9523V19.52C50.9523 18.96 50.8203 18.54 50.5563 18.26C50.2923 17.972 49.9163 17.828 49.4283 17.828C48.8763 17.828 48.4403 17.996 48.1203 18.332C47.8003 18.66 47.6403 19.136 47.6403 19.76V23H46.1403V16.592H47.5683V17.42C47.8163 17.124 48.1283 16.9 48.5043 16.748C48.8803 16.596 49.3043 16.52 49.7763 16.52ZM58.2071 22.652C58.0311 22.796 57.8151 22.904 57.5591 22.976C57.3111 23.048 57.0471 23.084 56.7671 23.084C56.0631 23.084 55.5191 22.9 55.1351 22.532C54.7511 22.164 54.5591 21.628 54.5591 20.924V17.84H53.5031V16.64H54.5591V15.176H56.0591V16.64H57.7751V17.84H56.0591V20.888C56.0591 21.2 56.1351 21.44 56.2871 21.608C56.4391 21.768 56.6591 21.848 56.9471 21.848C57.2831 21.848 57.5631 21.76 57.7871 21.584L58.2071 22.652ZM61.889 16.52C62.833 16.52 63.553 16.748 64.049 17.204C64.553 17.652 64.805 18.332 64.805 19.244V23H63.389V22.22C63.205 22.5 62.941 22.716 62.597 22.868C62.261 23.012 61.853 23.084 61.373 23.084C60.893 23.084 60.473 23.004 60.113 22.844C59.753 22.676 59.473 22.448 59.273 22.16C59.081 21.864 58.985 21.532 58.985 21.164C58.985 20.588 59.197 20.128 59.621 19.784C60.053 19.432 60.729 19.256 61.649 19.256H63.305V19.16C63.305 18.712 63.169 18.368 62.897 18.128C62.633 17.888 62.237 17.768 61.709 17.768C61.349 17.768 60.993 17.824 60.641 17.936C60.297 18.048 60.005 18.204 59.765 18.404L59.177 17.312C59.513 17.056 59.917 16.86 60.389 16.724C60.861 16.588 61.361 16.52 61.889 16.52ZM61.685 21.992C62.061 21.992 62.393 21.908 62.681 21.74C62.977 21.564 63.185 21.316 63.305 20.996V20.252H61.757C60.893 20.252 60.461 20.536 60.461 21.104C60.461 21.376 60.569 21.592 60.785 21.752C61.001 21.912 61.301 21.992 61.685 21.992ZM68.1581 17.528C68.5901 16.856 69.3501 16.52 70.4381 16.52V17.948C70.3101 17.924 70.1941 17.912 70.0901 17.912C69.5061 17.912 69.0501 18.084 68.7221 18.428C68.3941 18.764 68.2301 19.252 68.2301 19.892V23H66.7301V16.592H68.1581V17.528ZM71.7106 16.592H73.2106V23H71.7106V16.592ZM72.4666 15.536C72.1946 15.536 71.9666 15.452 71.7826 15.284C71.5986 15.108 71.5066 14.892 71.5066 14.636C71.5066 14.38 71.5986 14.168 71.7826 14C71.9666 13.824 72.1946 13.736 72.4666 13.736C72.7386 13.736 72.9666 13.82 73.1506 13.988C73.3346 14.148 73.4266 14.352 73.4266 14.6C73.4266 14.864 73.3346 15.088 73.1506 15.272C72.9746 15.448 72.7466 15.536 72.4666 15.536ZM78.0593 23.084C77.4113 23.084 76.8273 22.944 76.3073 22.664C75.7873 22.384 75.3793 21.996 75.0833 21.5C74.7953 20.996 74.6513 20.428 74.6513 19.796C74.6513 19.164 74.7953 18.6 75.0833 18.104C75.3793 17.608 75.7873 17.22 76.3073 16.94C76.8273 16.66 77.4113 16.52 78.0593 16.52C78.7153 16.52 79.3033 16.66 79.8233 16.94C80.3433 17.22 80.7473 17.608 81.0353 18.104C81.3313 18.6 81.4793 19.164 81.4793 19.796C81.4793 20.428 81.3313 20.996 81.0353 21.5C80.7473 21.996 80.3433 22.384 79.8233 22.664C79.3033 22.944 78.7153 23.084 78.0593 23.084ZM78.0593 21.8C78.6113 21.8 79.0673 21.616 79.4273 21.248C79.7873 20.88 79.9673 20.396 79.9673 19.796C79.9673 19.196 79.7873 18.712 79.4273 18.344C79.0673 17.976 78.6113 17.792 78.0593 17.792C77.5073 17.792 77.0513 17.976 76.6913 18.344C76.3393 18.712 76.1633 19.196 76.1633 19.796C76.1633 20.396 76.3393 20.88 76.6913 21.248C77.0513 21.616 77.5073 21.8 78.0593 21.8Z" fill="#F3F3F3"/>
<path fill-rule="evenodd" clip-rule="evenodd" d="M56.455 46.6H27.8125C27.2915 46.5999 26.7763 46.7084 26.2997 46.9186C25.823 47.1287 25.3953 47.4358 25.0439 47.8204C24.6925 48.2049 24.4251 48.6585 24.2587 49.1521C24.0923 49.6458 24.0306 50.1687 24.0775 50.6875L26.4662 76.9375C26.5504 77.8692 26.9798 78.7358 27.6702 79.3672C28.3605 79.9986 29.2619 80.3491 30.1975 80.35H53.35V84.1H30.1975C28.3264 84.0992 26.5231 83.3991 25.1417 82.1371C23.7603 80.875 22.9006 79.1422 22.7312 77.2787L20.3425 51.0287C20.1827 49.2917 20.6364 47.5535 21.625 46.1162L21.475 42.85C21.475 40.8609 22.2651 38.9532 23.6717 37.5467C25.0782 36.1402 26.9858 35.35 28.975 35.35H42.745C44.7339 35.3504 46.6413 36.1409 48.0475 37.5475L51.1525 40.6525C52.5587 42.0591 54.466 42.8496 56.455 42.85H71.3875C72.4297 42.8499 73.4605 43.067 74.4141 43.4874C75.3677 43.9079 76.2232 44.5225 76.9261 45.2921C77.6289 46.0616 78.1637 46.9692 78.4962 47.9569C78.8288 48.9446 78.9518 49.9908 78.8575 51.0287L77.8975 61.6H74.125L75.1187 50.6875C75.1656 50.169 75.104 49.6464 74.9378 49.153C74.7716 48.6596 74.5045 48.2063 74.1535 47.8218C73.8025 47.4373 73.3753 47.1301 72.8991 46.9197C72.4229 46.7094 71.9081 46.6005 71.3875 46.6H56.455ZM45.3925 40.1987L48.0512 42.85H27.8125C26.9125 42.85 26.05 43.0075 25.2475 43.3L25.225 42.775C25.2446 41.7935 25.6483 40.8588 26.3495 40.1717C27.0506 39.4846 27.9933 39.0998 28.975 39.1H42.745C43.7395 39.1002 44.6931 39.4954 45.3962 40.1987H45.3925Z" fill="#F3F3F3"/>
<path fill-rule="evenodd" clip-rule="evenodd" d="M79.0525 69.6474C79.2271 69.8216 79.3656 70.0285 79.4601 70.2563C79.5547 70.4841 79.6033 70.7283 79.6033 70.9749C79.6033 71.2215 79.5547 71.4657 79.4601 71.6935C79.3656 71.9213 79.2271 72.1282 79.0525 72.3024L67.8025 83.5524C67.6283 83.727 67.4214 83.8656 67.1936 83.9601C66.9658 84.0546 66.7216 84.1033 66.475 84.1033C66.2284 84.1033 65.9842 84.0546 65.7564 83.9601C65.5286 83.8656 65.3217 83.727 65.1475 83.5524L59.5225 77.9274C59.3482 77.7531 59.2099 77.5461 59.1155 77.3183C59.0212 77.0906 58.9726 76.8464 58.9726 76.5999C58.9726 76.3534 59.0212 76.1092 59.1155 75.8815C59.2099 75.6537 59.3482 75.4467 59.5225 75.2724C59.6968 75.0981 59.9038 74.9598 60.1316 74.8654C60.3593 74.7711 60.6035 74.7225 60.85 74.7225C61.0965 74.7225 61.3407 74.7711 61.5684 74.8654C61.7962 74.9598 62.0032 75.0981 62.1775 75.2724L66.475 79.5737L76.3975 69.6474C76.5717 69.4728 76.7786 69.3343 77.0064 69.2397C77.2341 69.1452 77.4784 69.0966 77.725 69.0966C77.9716 69.0966 78.2158 69.1452 78.4436 69.2397C78.6714 69.3343 78.8783 69.4728 79.0525 69.6474Z" fill="#F3F3F3"/>
<rect x="122" width="100" height="100" rx="15" fill="#323232"/>
<path d="M153.95 65.1166C153.247 65.1166 152.573 65.3642 152.076 65.8049C151.579 66.2456 151.3 66.8434 151.3 67.4666V76.8666C151.3 77.4899 151.579 78.0876 152.076 78.5283C152.573 78.969 153.247 79.2166 153.95 79.2166H191.05C191.753 79.2166 192.427 78.969 192.924 78.5283C193.421 78.0876 193.7 77.4899 193.7 76.8666V67.4666C193.7 66.8434 193.421 66.2456 192.924 65.8049C192.427 65.3642 191.753 65.1166 191.05 65.1166H153.95ZM153.95 60.4166C151.842 60.4166 149.819 59.6739 148.329 58.3517C146.838 57.0296 146 55.2364 146 53.3666V43.9666C146 42.0968 146.838 40.3037 148.329 38.9815C149.819 37.6594 151.842 36.9166 153.95 36.9166H191.05C193.158 36.9166 195.181 37.6594 196.672 38.9815C198.162 40.3037 199 42.0968 199 43.9666V53.3666C199 55.2364 198.162 57.0296 196.672 58.3517C195.181 59.6739 193.158 60.4166 191.05 60.4166C193.158 60.4166 195.181 61.1594 196.672 62.4815C198.162 63.8037 199 65.5968 199 67.4666V76.8666C199 78.7364 198.162 80.5296 196.672 81.8517C195.181 83.1739 193.158 83.9166 191.05 83.9166H153.95C151.842 83.9166 149.819 83.1739 148.329 81.8517C146.838 80.5296 146 78.7364 146 76.8666V67.4666C146 65.5968 146.838 63.8037 148.329 62.4815C149.819 61.1594 151.842 60.4166 153.95 60.4166ZM153.95 41.6166C153.247 41.6166 152.573 41.8642 152.076 42.3049C151.579 42.7456 151.3 43.3434 151.3 43.9666V53.3666C151.3 53.9899 151.579 54.5876 152.076 55.0283C152.573 55.469 153.247 55.7166 153.95 55.7166H191.05C191.753 55.7166 192.427 55.469 192.924 55.0283C193.421 54.5876 193.7 53.9899 193.7 53.3666V43.9666C193.7 43.3434 193.421 42.7456 192.924 42.3049C192.427 41.8642 191.753 41.6166 191.05 41.6166H153.95ZM159.25 51.0166C158.547 51.0166 157.873 50.769 157.376 50.3283C156.879 49.8876 156.6 49.2899 156.6 48.6666C156.6 48.0434 156.879 47.4456 157.376 47.0049C157.873 46.5642 158.547 46.3166 159.25 46.3166C159.953 46.3166 160.627 46.5642 161.124 47.0049C161.621 47.4456 161.9 48.0434 161.9 48.6666C161.9 49.2899 161.621 49.8876 161.124 50.3283C160.627 50.769 159.953 51.0166 159.25 51.0166ZM167.2 51.0166C166.497 51.0166 165.823 50.769 165.326 50.3283C164.829 49.8876 164.55 49.2899 164.55 48.6666C164.55 48.0434 164.829 47.4456 165.326 47.0049C165.823 46.5642 166.497 46.3166 167.2 46.3166C167.903 46.3166 168.577 46.5642 169.074 47.0049C169.571 47.4456 169.85 48.0434 169.85 48.6666C169.85 49.2899 169.571 49.8876 169.074 50.3283C168.577 50.769 167.903 51.0166 167.2 51.0166ZM167.2 74.5166C166.497 74.5166 165.823 74.269 165.326 73.8283C164.829 73.3876 164.55 72.7899 164.55 72.1666C164.55 71.5434 164.829 70.9456 165.326 70.5049C165.823 70.0642 166.497 69.8166 167.2 69.8166C167.903 69.8166 168.577 70.0642 169.074 70.5049C169.571 70.9456 169.85 71.5434 169.85 72.1666C169.85 72.7899 169.571 73.3876 169.074 73.8283C168.577 74.269 167.903 74.5166 167.2 74.5166ZM159.25 74.5166C158.547 74.5166 157.873 74.269 157.376 73.8283C156.879 73.3876 156.6 72.7899 156.6 72.1666C156.6 71.5434 156.879 70.9456 157.376 70.5049C157.873 70.0642 158.547 69.8166 159.25 69.8166C159.953 69.8166 160.627 70.0642 161.124 70.5049C161.621 70.9456 161.9 71.5434 161.9 72.1666C161.9 72.7899 161.621 73.3876 161.124 73.8283C160.627 74.269 159.953 74.5166 159.25 74.5166Z" fill="#F3F3F3"/>
<path d="M145.128 14.6H146.688V21.68H151.08V23H145.128V14.6ZM154.989 23.084C154.341 23.084 153.757 22.944 153.237 22.664C152.717 22.384 152.309 21.996 152.013 21.5C151.725 20.996 151.581 20.428 151.581 19.796C151.581 19.164 151.725 18.6 152.013 18.104C152.309 17.608 152.717 17.22 153.237 16.94C153.757 16.66 154.341 16.52 154.989 16.52C155.645 16.52 156.233 16.66 156.753 16.94C157.273 17.22 157.677 17.608 157.965 18.104C158.261 18.6 158.409 19.164 158.409 19.796C158.409 20.428 158.261 20.996 157.965 21.5C157.677 21.996 157.273 22.384 156.753 22.664C156.233 22.944 155.645 23.084 154.989 23.084ZM154.989 21.8C155.541 21.8 155.997 21.616 156.357 21.248C156.717 20.88 156.897 20.396 156.897 19.796C156.897 19.196 156.717 18.712 156.357 18.344C155.997 17.976 155.541 17.792 154.989 17.792C154.437 17.792 153.981 17.976 153.621 18.344C153.269 18.712 153.093 19.196 153.093 19.796C153.093 20.396 153.269 20.88 153.621 21.248C153.981 21.616 154.437 21.8 154.989 21.8ZM166.203 16.592V22.028C166.203 24.284 165.051 25.412 162.747 25.412C162.131 25.412 161.547 25.332 160.995 25.172C160.443 25.02 159.987 24.796 159.627 24.5L160.299 23.372C160.579 23.604 160.931 23.788 161.355 23.924C161.787 24.068 162.223 24.14 162.663 24.14C163.367 24.14 163.883 23.98 164.211 23.66C164.539 23.34 164.703 22.852 164.703 22.196V21.86C164.447 22.14 164.135 22.352 163.767 22.496C163.399 22.64 162.995 22.712 162.555 22.712C161.947 22.712 161.395 22.584 160.899 22.328C160.411 22.064 160.023 21.696 159.735 21.224C159.455 20.752 159.315 20.212 159.315 19.604C159.315 18.996 159.455 18.46 159.735 17.996C160.023 17.524 160.411 17.16 160.899 16.904C161.395 16.648 161.947 16.52 162.555 16.52C163.019 16.52 163.439 16.596 163.815 16.748C164.199 16.9 164.519 17.132 164.775 17.444V16.592H166.203ZM162.783 21.44C163.351 21.44 163.815 21.272 164.175 20.936C164.543 20.592 164.727 20.148 164.727 19.604C164.727 19.068 164.543 18.632 164.175 18.296C163.815 17.96 163.351 17.792 162.783 17.792C162.207 17.792 161.735 17.96 161.367 18.296C161.007 18.632 160.827 19.068 160.827 19.604C160.827 20.148 161.007 20.592 161.367 20.936C161.735 21.272 162.207 21.44 162.783 21.44ZM168.175 16.592H169.675V23H168.175V16.592ZM168.931 15.536C168.659 15.536 168.431 15.452 168.247 15.284C168.063 15.108 167.971 14.892 167.971 14.636C167.971 14.38 168.063 14.168 168.247 14C168.431 13.824 168.659 13.736 168.931 13.736C169.203 13.736 169.431 13.82 169.615 13.988C169.799 14.148 169.891 14.352 169.891 14.6C169.891 14.864 169.799 15.088 169.615 15.272C169.439 15.448 169.211 15.536 168.931 15.536ZM173.624 23.084C173.104 23.084 172.596 23.016 172.1 22.88C171.604 22.744 171.208 22.572 170.912 22.364L171.488 21.224C171.776 21.416 172.12 21.572 172.52 21.692C172.928 21.804 173.328 21.86 173.72 21.86C174.616 21.86 175.064 21.624 175.064 21.152C175.064 20.928 174.948 20.772 174.716 20.684C174.492 20.596 174.128 20.512 173.624 20.432C173.096 20.352 172.664 20.26 172.328 20.156C172 20.052 171.712 19.872 171.464 19.616C171.224 19.352 171.104 18.988 171.104 18.524C171.104 17.916 171.356 17.432 171.86 17.072C172.372 16.704 173.06 16.52 173.924 16.52C174.364 16.52 174.804 16.572 175.244 16.676C175.684 16.772 176.044 16.904 176.324 17.072L175.748 18.212C175.204 17.892 174.592 17.732 173.912 17.732C173.472 17.732 173.136 17.8 172.904 17.936C172.68 18.064 172.568 18.236 172.568 18.452C172.568 18.692 172.688 18.864 172.928 18.968C173.176 19.064 173.556 19.156 174.068 19.244C174.58 19.324 175 19.416 175.328 19.52C175.656 19.624 175.936 19.8 176.168 20.048C176.408 20.296 176.528 20.648 176.528 21.104C176.528 21.704 176.268 22.184 175.748 22.544C175.228 22.904 174.52 23.084 173.624 23.084ZM181.672 22.652C181.496 22.796 181.28 22.904 181.024 22.976C180.776 23.048 180.512 23.084 180.232 23.084C179.528 23.084 178.984 22.9 178.6 22.532C178.216 22.164 178.024 21.628 178.024 20.924V17.84H176.968V16.64H178.024V15.176H179.524V16.64H181.24V17.84H179.524V20.888C179.524 21.2 179.6 21.44 179.752 21.608C179.904 21.768 180.124 21.848 180.412 21.848C180.748 21.848 181.028 21.76 181.252 21.584L181.672 22.652ZM182.906 16.592H184.406V23H182.906V16.592ZM183.662 15.536C183.39 15.536 183.162 15.452 182.978 15.284C182.794 15.108 182.702 14.892 182.702 14.636C182.702 14.38 182.794 14.168 182.978 14C183.162 13.824 183.39 13.736 183.662 13.736C183.934 13.736 184.162 13.82 184.346 13.988C184.53 14.148 184.622 14.352 184.622 14.6C184.622 14.864 184.53 15.088 184.346 15.272C184.17 15.448 183.942 15.536 183.662 15.536ZM189.315 23.084C188.651 23.084 188.055 22.944 187.527 22.664C186.999 22.384 186.587 21.996 186.291 21.5C185.995 20.996 185.847 20.428 185.847 19.796C185.847 19.164 185.995 18.6 186.291 18.104C186.587 17.608 186.995 17.22 187.515 16.94C188.043 16.66 188.643 16.52 189.315 16.52C189.947 16.52 190.499 16.648 190.971 16.904C191.451 17.16 191.811 17.528 192.051 18.008L190.899 18.68C190.715 18.384 190.483 18.164 190.203 18.02C189.931 17.868 189.631 17.792 189.303 17.792C188.743 17.792 188.279 17.976 187.911 18.344C187.543 18.704 187.359 19.188 187.359 19.796C187.359 20.404 187.539 20.892 187.899 21.26C188.267 21.62 188.735 21.8 189.303 21.8C189.631 21.8 189.931 21.728 190.203 21.584C190.483 21.432 190.715 21.208 190.899 20.912L192.051 21.584C191.803 22.064 191.439 22.436 190.959 22.7C190.487 22.956 189.939 23.084 189.315 23.084ZM195.795 16.52C196.739 16.52 197.459 16.748 197.955 17.204C198.459 17.652 198.711 18.332 198.711 19.244V23H197.295V22.22C197.111 22.5 196.847 22.716 196.503 22.868C196.167 23.012 195.759 23.084 195.279 23.084C194.799 23.084 194.379 23.004 194.019 22.844C193.659 22.676 193.379 22.448 193.179 22.16C192.987 21.864 192.891 21.532 192.891 21.164C192.891 20.588 193.103 20.128 193.527 19.784C193.959 19.432 194.635 19.256 195.555 19.256H197.211V19.16C197.211 18.712 197.075 18.368 196.803 18.128C196.539 17.888 196.143 17.768 195.615 17.768C195.255 17.768 194.899 17.824 194.547 17.936C194.203 18.048 193.911 18.204 193.671 18.404L193.083 17.312C193.419 17.056 193.823 16.86 194.295 16.724C194.767 16.588 195.267 16.52 195.795 16.52ZM195.591 21.992C195.967 21.992 196.299 21.908 196.587 21.74C196.883 21.564 197.091 21.316 197.211 20.996V20.252H195.663C194.799 20.252 194.367 20.536 194.367 21.104C194.367 21.376 194.475 21.592 194.691 21.752C194.907 21.912 195.207 21.992 195.591 21.992Z" fill="#F3F3F3"/>
<rect x="244" width="100" height="100" rx="15" fill="#323232"/>
<path d="M259.016 23.12C258.168 23.12 257.4 22.936 256.712 22.568C256.032 22.192 255.496 21.676 255.104 21.02C254.72 20.364 254.528 19.624 254.528 18.8C254.528 17.976 254.724 17.236 255.116 16.58C255.508 15.924 256.044 15.412 256.724 15.044C257.412 14.668 258.18 14.48 259.028 14.48C259.716 14.48 260.344 14.6 260.912 14.84C261.48 15.08 261.96 15.428 262.352 15.884L261.344 16.832C260.736 16.176 259.988 15.848 259.1 15.848C258.524 15.848 258.008 15.976 257.552 16.232C257.096 16.48 256.74 16.828 256.484 17.276C256.228 17.724 256.1 18.232 256.1 18.8C256.1 19.368 256.228 19.876 256.484 20.324C256.74 20.772 257.096 21.124 257.552 21.38C258.008 21.628 258.524 21.752 259.1 21.752C259.988 21.752 260.736 21.42 261.344 20.756L262.352 21.716C261.96 22.172 261.476 22.52 260.9 22.76C260.332 23 259.704 23.12 259.016 23.12ZM266.348 23.084C265.7 23.084 265.116 22.944 264.596 22.664C264.076 22.384 263.668 21.996 263.372 21.5C263.084 20.996 262.94 20.428 262.94 19.796C262.94 19.164 263.084 18.6 263.372 18.104C263.668 17.608 264.076 17.22 264.596 16.94C265.116 16.66 265.7 16.52 266.348 16.52C267.004 16.52 267.592 16.66 268.112 16.94C268.632 17.22 269.036 17.608 269.324 18.104C269.62 18.6 269.768 19.164 269.768 19.796C269.768 20.428 269.62 20.996 269.324 21.5C269.036 21.996 268.632 22.384 268.112 22.664C267.592 22.944 267.004 23.084 266.348 23.084ZM266.348 21.8C266.9 21.8 267.356 21.616 267.716 21.248C268.076 20.88 268.256 20.396 268.256 19.796C268.256 19.196 268.076 18.712 267.716 18.344C267.356 17.976 266.9 17.792 266.348 17.792C265.796 17.792 265.34 17.976 264.98 18.344C264.628 18.712 264.452 19.196 264.452 19.796C264.452 20.396 264.628 20.88 264.98 21.248C265.34 21.616 265.796 21.8 266.348 21.8ZM274.839 16.52C275.647 16.52 276.295 16.756 276.783 17.228C277.271 17.7 277.515 18.4 277.515 19.328V23H276.015V19.52C276.015 18.96 275.883 18.54 275.619 18.26C275.355 17.972 274.979 17.828 274.491 17.828C273.939 17.828 273.503 17.996 273.183 18.332C272.863 18.66 272.703 19.136 272.703 19.76V23H271.203V16.592H272.631V17.42C272.879 17.124 273.191 16.9 273.567 16.748C273.943 16.596 274.367 16.52 274.839 16.52ZM283.27 22.652C283.094 22.796 282.878 22.904 282.622 22.976C282.374 23.048 282.11 23.084 281.83 23.084C281.126 23.084 280.582 22.9 280.198 22.532C279.814 22.164 279.622 21.628 279.622 20.924V17.84H278.566V16.64H279.622V15.176H281.122V16.64H282.838V17.84H281.122V20.888C281.122 21.2 281.198 21.44 281.35 21.608C281.502 21.768 281.722 21.848 282.01 21.848C282.346 21.848 282.626 21.76 282.85 21.584L283.27 22.652ZM286.952 16.52C287.896 16.52 288.616 16.748 289.112 17.204C289.616 17.652 289.868 18.332 289.868 19.244V23H288.452V22.22C288.268 22.5 288.004 22.716 287.66 22.868C287.324 23.012 286.916 23.084 286.436 23.084C285.956 23.084 285.536 23.004 285.176 22.844C284.816 22.676 284.536 22.448 284.336 22.16C284.144 21.864 284.048 21.532 284.048 21.164C284.048 20.588 284.26 20.128 284.684 19.784C285.116 19.432 285.792 19.256 286.712 19.256H288.368V19.16C288.368 18.712 288.232 18.368 287.96 18.128C287.696 17.888 287.3 17.768 286.772 17.768C286.412 17.768 286.056 17.824 285.704 17.936C285.36 18.048 285.068 18.204 284.828 18.404L284.24 17.312C284.576 17.056 284.98 16.86 285.452 16.724C285.924 16.588 286.424 16.52 286.952 16.52ZM286.748 21.992C287.124 21.992 287.456 21.908 287.744 21.74C288.04 21.564 288.248 21.316 288.368 20.996V20.252H286.82C285.956 20.252 285.524 20.536 285.524 21.104C285.524 21.376 285.632 21.592 285.848 21.752C286.064 21.912 286.364 21.992 286.748 21.992ZM295.345 16.52C295.969 16.52 296.525 16.656 297.013 16.928C297.509 17.2 297.897 17.584 298.177 18.08C298.457 18.576 298.597 19.148 298.597 19.796C298.597 20.444 298.457 21.02 298.177 21.524C297.897 22.02 297.509 22.404 297.013 22.676C296.525 22.948 295.969 23.084 295.345 23.084C294.905 23.084 294.501 23.008 294.133 22.856C293.773 22.704 293.469 22.476 293.221 22.172V23H291.793V14.096H293.293V17.372C293.549 17.092 293.849 16.88 294.193 16.736C294.545 16.592 294.929 16.52 295.345 16.52ZM295.177 21.8C295.729 21.8 296.181 21.616 296.533 21.248C296.893 20.88 297.073 20.396 297.073 19.796C297.073 19.196 296.893 18.712 296.533 18.344C296.181 17.976 295.729 17.792 295.177 17.792C294.817 17.792 294.493 17.876 294.205 18.044C293.917 18.204 293.689 18.436 293.521 18.74C293.353 19.044 293.269 19.396 293.269 19.796C293.269 20.196 293.353 20.548 293.521 20.852C293.689 21.156 293.917 21.392 294.205 21.56C294.493 21.72 294.817 21.8 295.177 21.8ZM300.019 16.592H301.519V23H300.019V16.592ZM300.775 15.536C300.503 15.536 300.275 15.452 300.091 15.284C299.907 15.108 299.815 14.892 299.815 14.636C299.815 14.38 299.907 14.168 300.091 14C300.275 13.824 300.503 13.736 300.775 13.736C301.047 13.736 301.275 13.82 301.459 13.988C301.643 14.148 301.735 14.352 301.735 14.6C301.735 14.864 301.643 15.088 301.459 15.272C301.283 15.448 301.055 15.536 300.775 15.536ZM303.488 14.096H304.988V23H303.488V14.096ZM306.957 16.592H308.457V23H306.957V16.592ZM307.713 15.536C307.441 15.536 307.213 15.452 307.029 15.284C306.845 15.108 306.753 14.892 306.753 14.636C306.753 14.38 306.845 14.168 307.029 14C307.213 13.824 307.441 13.736 307.713 13.736C307.985 13.736 308.213 13.82 308.397 13.988C308.581 14.148 308.673 14.352 308.673 14.6C308.673 14.864 308.581 15.088 308.397 15.272C308.221 15.448 307.993 15.536 307.713 15.536ZM316.701 14.096V23H315.261V22.172C315.013 22.476 314.705 22.704 314.337 22.856C313.977 23.008 313.577 23.084 313.137 23.084C312.521 23.084 311.965 22.948 311.469 22.676C310.981 22.404 310.597 22.02 310.317 21.524C310.037 21.02 309.897 20.444 309.897 19.796C309.897 19.148 310.037 18.576 310.317 18.08C310.597 17.584 310.981 17.2 311.469 16.928C311.965 16.656 312.521 16.52 313.137 16.52C313.561 16.52 313.949 16.592 314.301 16.736C314.653 16.88 314.953 17.096 315.201 17.384V14.096H316.701ZM313.317 21.8C313.677 21.8 314.001 21.72 314.289 21.56C314.577 21.392 314.805 21.156 314.973 20.852C315.141 20.548 315.225 20.196 315.225 19.796C315.225 19.396 315.141 19.044 314.973 18.74C314.805 18.436 314.577 18.204 314.289 18.044C314.001 17.876 313.677 17.792 313.317 17.792C312.957 17.792 312.633 17.876 312.345 18.044C312.057 18.204 311.829 18.436 311.661 18.74C311.493 19.044 311.409 19.396 311.409 19.796C311.409 20.196 311.493 20.548 311.661 20.852C311.829 21.156 312.057 21.392 312.345 21.56C312.633 21.72 312.957 21.8 313.317 21.8ZM321.112 16.52C322.056 16.52 322.776 16.748 323.272 17.204C323.776 17.652 324.028 18.332 324.028 19.244V23H322.612V22.22C322.428 22.5 322.164 22.716 321.82 22.868C321.484 23.012 321.076 23.084 320.596 23.084C320.116 23.084 319.696 23.004 319.336 22.844C318.976 22.676 318.696 22.448 318.496 22.16C318.304 21.864 318.208 21.532 318.208 21.164C318.208 20.588 318.42 20.128 318.844 19.784C319.276 19.432 319.952 19.256 320.872 19.256H322.528V19.16C322.528 18.712 322.392 18.368 322.12 18.128C321.856 17.888 321.46 17.768 320.932 17.768C320.572 17.768 320.216 17.824 319.864 17.936C319.52 18.048 319.228 18.204 318.988 18.404L318.4 17.312C318.736 17.056 319.14 16.86 319.612 16.724C320.084 16.588 320.584 16.52 321.112 16.52ZM320.908 21.992C321.284 21.992 321.616 21.908 321.904 21.74C322.2 21.564 322.408 21.316 322.528 20.996V20.252H320.98C320.116 20.252 319.684 20.536 319.684 21.104C319.684 21.376 319.792 21.592 320.008 21.752C320.224 21.912 320.524 21.992 320.908 21.992ZM332.287 14.096V23H330.847V22.172C330.599 22.476 330.291 22.704 329.923 22.856C329.563 23.008 329.163 23.084 328.723 23.084C328.107 23.084 327.551 22.948 327.055 22.676C326.567 22.404 326.183 22.02 325.903 21.524C325.623 21.02 325.483 20.444 325.483 19.796C325.483 19.148 325.623 18.576 325.903 18.08C326.183 17.584 326.567 17.2 327.055 16.928C327.551 16.656 328.107 16.52 328.723 16.52C329.147 16.52 329.535 16.592 329.887 16.736C330.239 16.88 330.539 17.096 330.787 17.384V14.096H332.287ZM328.903 21.8C329.263 21.8 329.587 21.72 329.875 21.56C330.163 21.392 330.391 21.156 330.559 20.852C330.727 20.548 330.811 20.196 330.811 19.796C330.811 19.396 330.727 19.044 330.559 18.74C330.391 18.436 330.163 18.204 329.875 18.044C329.587 17.876 329.263 17.792 328.903 17.792C328.543 17.792 328.219 17.876 327.931 18.044C327.643 18.204 327.415 18.436 327.247 18.74C327.079 19.044 326.995 19.396 326.995 19.796C326.995 20.196 327.079 20.548 327.247 20.852C327.415 21.156 327.643 21.392 327.931 21.56C328.219 21.72 328.543 21.8 328.903 21.8Z" fill="#F3F3F3"/>
<path d="M278.895 69.5263L271 77.2632V55.0526H278.895V69.5263ZM292.053 64.6842L287.921 61.1579L284.158 64.6316V44.5263H292.053V64.6842ZM305.211 60.3158L297.316 68.2105V34H305.211V60.3158ZM312.605 59.8158L307.842 55.0526H321V68.2105L316.289 63.5L297.316 82.3158L288.184 74.3684L278.237 84H271L288.026 67.3158L297.316 75.1579" fill="#F3F3F3"/>
<rect y="122" width="100" height="100" rx="15" fill="#323232"/>
<path d="M24.688 137.908V140.464H28.744V141.784H24.688V145H23.128V136.6H29.26V137.908H24.688ZM30.5074 138.592H32.0074V145H30.5074V138.592ZM31.2634 137.536C30.9914 137.536 30.7634 137.452 30.5794 137.284C30.3954 137.108 30.3034 136.892 30.3034 136.636C30.3034 136.38 30.3954 136.168 30.5794 136C30.7634 135.824 30.9914 135.736 31.2634 135.736C31.5354 135.736 31.7634 135.82 31.9474 135.988C32.1314 136.148 32.2234 136.352 32.2234 136.6C32.2234 136.864 32.1314 137.088 31.9474 137.272C31.7714 137.448 31.5434 137.536 31.2634 137.536ZM37.6122 138.52C38.4202 138.52 39.0682 138.756 39.5562 139.228C40.0442 139.7 40.2882 140.4 40.2882 141.328V145H38.7882V141.52C38.7882 140.96 38.6562 140.54 38.3922 140.26C38.1282 139.972 37.7522 139.828 37.2642 139.828C36.7122 139.828 36.2762 139.996 35.9562 140.332C35.6362 140.66 35.4762 141.136 35.4762 141.76V145H33.9762V138.592H35.4042V139.42C35.6522 139.124 35.9642 138.9 36.3402 138.748C36.7162 138.596 37.1402 138.52 37.6122 138.52ZM44.639 138.52C45.583 138.52 46.303 138.748 46.799 139.204C47.303 139.652 47.555 140.332 47.555 141.244V145H46.139V144.22C45.955 144.5 45.691 144.716 45.347 144.868C45.011 145.012 44.603 145.084 44.123 145.084C43.643 145.084 43.223 145.004 42.863 144.844C42.503 144.676 42.223 144.448 42.023 144.16C41.831 143.864 41.735 143.532 41.735 143.164C41.735 142.588 41.947 142.128 42.371 141.784C42.803 141.432 43.479 141.256 44.399 141.256H46.055V141.16C46.055 140.712 45.919 140.368 45.647 140.128C45.383 139.888 44.987 139.768 44.459 139.768C44.099 139.768 43.743 139.824 43.391 139.936C43.047 140.048 42.755 140.204 42.515 140.404L41.927 139.312C42.263 139.056 42.667 138.86 43.139 138.724C43.611 138.588 44.111 138.52 44.639 138.52ZM44.435 143.992C44.811 143.992 45.143 143.908 45.431 143.74C45.727 143.564 45.935 143.316 46.055 142.996V142.252H44.507C43.643 142.252 43.211 142.536 43.211 143.104C43.211 143.376 43.319 143.592 43.535 143.752C43.751 143.912 44.051 143.992 44.435 143.992ZM53.1161 138.52C53.9241 138.52 54.5721 138.756 55.0601 139.228C55.5481 139.7 55.7921 140.4 55.7921 141.328V145H54.2921V141.52C54.2921 140.96 54.1601 140.54 53.8961 140.26C53.6321 139.972 53.2561 139.828 52.7681 139.828C52.2161 139.828 51.7801 139.996 51.4601 140.332C51.1401 140.66 50.9801 141.136 50.9801 141.76V145H49.4801V138.592H50.9081V139.42C51.1561 139.124 51.4681 138.9 51.8441 138.748C52.2201 138.596 52.6441 138.52 53.1161 138.52ZM62.6989 143.8V145H57.1669V144.052L60.6829 139.792H57.2389V138.592H62.6029V139.54L59.0749 143.8H62.6989ZM66.5297 138.52C67.4737 138.52 68.1937 138.748 68.6897 139.204C69.1937 139.652 69.4457 140.332 69.4457 141.244V145H68.0297V144.22C67.8457 144.5 67.5817 144.716 67.2377 144.868C66.9017 145.012 66.4937 145.084 66.0137 145.084C65.5337 145.084 65.1137 145.004 64.7537 144.844C64.3937 144.676 64.1137 144.448 63.9137 144.16C63.7217 143.864 63.6257 143.532 63.6257 143.164C63.6257 142.588 63.8377 142.128 64.2617 141.784C64.6937 141.432 65.3697 141.256 66.2897 141.256H67.9457V141.16C67.9457 140.712 67.8097 140.368 67.5377 140.128C67.2737 139.888 66.8777 139.768 66.3497 139.768C65.9897 139.768 65.6337 139.824 65.2817 139.936C64.9377 140.048 64.6457 140.204 64.4057 140.404L63.8177 139.312C64.1537 139.056 64.5577 138.86 65.0297 138.724C65.5017 138.588 66.0017 138.52 66.5297 138.52ZM66.3257 143.992C66.7017 143.992 67.0337 143.908 67.3217 143.74C67.6177 143.564 67.8257 143.316 67.9457 142.996V142.252H66.3977C65.5337 142.252 65.1017 142.536 65.1017 143.104C65.1017 143.376 65.2097 143.592 65.4257 143.752C65.6417 143.912 65.9417 143.992 66.3257 143.992ZM73.3507 145.084C72.8307 145.084 72.3227 145.016 71.8267 144.88C71.3307 144.744 70.9347 144.572 70.6387 144.364L71.2147 143.224C71.5027 143.416 71.8467 143.572 72.2467 143.692C72.6547 143.804 73.0547 143.86 73.4467 143.86C74.3427 143.86 74.7907 143.624 74.7907 143.152C74.7907 142.928 74.6747 142.772 74.4427 142.684C74.2187 142.596 73.8547 142.512 73.3507 142.432C72.8227 142.352 72.3907 142.26 72.0547 142.156C71.7267 142.052 71.4387 141.872 71.1907 141.616C70.9507 141.352 70.8307 140.988 70.8307 140.524C70.8307 139.916 71.0827 139.432 71.5867 139.072C72.0987 138.704 72.7867 138.52 73.6507 138.52C74.0907 138.52 74.5307 138.572 74.9707 138.676C75.4107 138.772 75.7707 138.904 76.0507 139.072L75.4747 140.212C74.9307 139.892 74.3187 139.732 73.6387 139.732C73.1987 139.732 72.8627 139.8 72.6307 139.936C72.4067 140.064 72.2947 140.236 72.2947 140.452C72.2947 140.692 72.4147 140.864 72.6547 140.968C72.9027 141.064 73.2827 141.156 73.7947 141.244C74.3067 141.324 74.7267 141.416 75.0547 141.52C75.3827 141.624 75.6627 141.8 75.8947 142.048C76.1347 142.296 76.2547 142.648 76.2547 143.104C76.2547 143.704 75.9947 144.184 75.4747 144.544C74.9547 144.904 74.2467 145.084 73.3507 145.084Z" fill="#F3F3F3"/>
<path d="M74 161.333C74 158.392 71.608 156 68.6667 156H31.3333C28.392 156 26 158.392 26 161.333V198.667C26 201.608 28.392 204 31.3333 204H68.6667C71.608 204 74 201.608 74 198.667V161.333ZM31.3333 198.667V161.333H68.6667L68.672 198.667H31.3333Z" fill="#F3F3F3"/>
<path d="M37 166H42.3946V171.4H37V166ZM47.8 166H64V171.4H47.8V166ZM37 176.8H42.3946V182.2H37V176.8ZM47.8 176.8H64V182.2H47.8V176.8ZM37 187.6H42.3946V193H37V187.6ZM47.8 187.6H64V193H47.8V187.6Z" fill="#F3F3F3"/>
<rect x="122" y="122" width="100" height="100" rx="15" fill="#323232"/>
<path d="M137.688 137.908V140.464H141.744V141.784H137.688V145H136.128V136.6H142.26V137.908H137.688ZM145.873 138.52C146.817 138.52 147.537 138.748 148.033 139.204C148.537 139.652 148.789 140.332 148.789 141.244V145H147.373V144.22C147.189 144.5 146.925 144.716 146.581 144.868C146.245 145.012 145.837 145.084 145.357 145.084C144.877 145.084 144.457 145.004 144.097 144.844C143.737 144.676 143.457 144.448 143.257 144.16C143.065 143.864 142.969 143.532 142.969 143.164C142.969 142.588 143.181 142.128 143.605 141.784C144.037 141.432 144.713 141.256 145.633 141.256H147.289V141.16C147.289 140.712 147.153 140.368 146.881 140.128C146.617 139.888 146.221 139.768 145.693 139.768C145.333 139.768 144.977 139.824 144.625 139.936C144.281 140.048 143.989 140.204 143.749 140.404L143.161 139.312C143.497 139.056 143.901 138.86 144.373 138.724C144.845 138.588 145.345 138.52 145.873 138.52ZM145.669 143.992C146.045 143.992 146.377 143.908 146.665 143.74C146.961 143.564 147.169 143.316 147.289 142.996V142.252H145.741C144.877 142.252 144.445 142.536 144.445 143.104C144.445 143.376 144.553 143.592 144.769 143.752C144.985 143.912 145.285 143.992 145.669 143.992ZM153.713 145.084C153.049 145.084 152.453 144.944 151.925 144.664C151.397 144.384 150.985 143.996 150.689 143.5C150.393 142.996 150.245 142.428 150.245 141.796C150.245 141.164 150.393 140.6 150.689 140.104C150.985 139.608 151.393 139.22 151.913 138.94C152.441 138.66 153.041 138.52 153.713 138.52C154.345 138.52 154.897 138.648 155.369 138.904C155.849 139.16 156.209 139.528 156.449 140.008L155.297 140.68C155.113 140.384 154.881 140.164 154.601 140.02C154.329 139.868 154.029 139.792 153.701 139.792C153.141 139.792 152.677 139.976 152.309 140.344C151.941 140.704 151.757 141.188 151.757 141.796C151.757 142.404 151.937 142.892 152.297 143.26C152.665 143.62 153.133 143.8 153.701 143.8C154.029 143.8 154.329 143.728 154.601 143.584C154.881 143.432 155.113 143.208 155.297 142.912L156.449 143.584C156.201 144.064 155.837 144.436 155.357 144.7C154.885 144.956 154.337 145.084 153.713 145.084ZM161.68 144.652C161.504 144.796 161.288 144.904 161.032 144.976C160.784 145.048 160.52 145.084 160.24 145.084C159.536 145.084 158.992 144.9 158.608 144.532C158.224 144.164 158.032 143.628 158.032 142.924V139.84H156.976V138.64H158.032V137.176H159.532V138.64H161.248V139.84H159.532V142.888C159.532 143.2 159.608 143.44 159.76 143.608C159.912 143.768 160.132 143.848 160.42 143.848C160.756 143.848 161.036 143.76 161.26 143.584L161.68 144.652ZM169.118 138.592V145H167.69V144.184C167.45 144.472 167.15 144.696 166.79 144.856C166.43 145.008 166.042 145.084 165.626 145.084C164.77 145.084 164.094 144.848 163.598 144.376C163.11 143.896 162.866 143.188 162.866 142.252V138.592H164.366V142.048C164.366 142.624 164.494 143.056 164.75 143.344C165.014 143.624 165.386 143.764 165.866 143.764C166.402 143.764 166.826 143.6 167.138 143.272C167.458 142.936 167.618 142.456 167.618 141.832V138.592H169.118ZM172.51 139.528C172.942 138.856 173.702 138.52 174.79 138.52V139.948C174.662 139.924 174.546 139.912 174.442 139.912C173.858 139.912 173.402 140.084 173.074 140.428C172.746 140.764 172.582 141.252 172.582 141.892V145H171.082V138.592H172.51V139.528ZM178.475 138.52C179.419 138.52 180.139 138.748 180.635 139.204C181.139 139.652 181.391 140.332 181.391 141.244V145H179.975V144.22C179.791 144.5 179.527 144.716 179.183 144.868C178.847 145.012 178.439 145.084 177.959 145.084C177.479 145.084 177.059 145.004 176.699 144.844C176.339 144.676 176.059 144.448 175.859 144.16C175.667 143.864 175.571 143.532 175.571 143.164C175.571 142.588 175.783 142.128 176.207 141.784C176.639 141.432 177.315 141.256 178.235 141.256H179.891V141.16C179.891 140.712 179.755 140.368 179.483 140.128C179.219 139.888 178.823 139.768 178.295 139.768C177.935 139.768 177.579 139.824 177.227 139.936C176.883 140.048 176.591 140.204 176.351 140.404L175.763 139.312C176.099 139.056 176.503 138.86 176.975 138.724C177.447 138.588 177.947 138.52 178.475 138.52ZM178.271 143.992C178.647 143.992 178.979 143.908 179.267 143.74C179.563 143.564 179.771 143.316 179.891 142.996V142.252H178.343C177.479 142.252 177.047 142.536 177.047 143.104C177.047 143.376 177.155 143.592 177.371 143.752C177.587 143.912 177.887 143.992 178.271 143.992ZM186.315 145.084C185.651 145.084 185.055 144.944 184.527 144.664C183.999 144.384 183.587 143.996 183.291 143.5C182.995 142.996 182.847 142.428 182.847 141.796C182.847 141.164 182.995 140.6 183.291 140.104C183.587 139.608 183.995 139.22 184.515 138.94C185.043 138.66 185.643 138.52 186.315 138.52C186.947 138.52 187.499 138.648 187.971 138.904C188.451 139.16 188.811 139.528 189.051 140.008L187.899 140.68C187.715 140.384 187.483 140.164 187.203 140.02C186.931 139.868 186.631 139.792 186.303 139.792C185.743 139.792 185.279 139.976 184.911 140.344C184.543 140.704 184.359 141.188 184.359 141.796C184.359 142.404 184.539 142.892 184.899 143.26C185.267 143.62 185.735 143.8 186.303 143.8C186.631 143.8 186.931 143.728 187.203 143.584C187.483 143.432 187.715 143.208 187.899 142.912L189.051 143.584C188.803 144.064 188.439 144.436 187.959 144.7C187.487 144.956 186.939 145.084 186.315 145.084ZM190.347 138.592H191.847V145H190.347V138.592ZM191.103 137.536C190.831 137.536 190.603 137.452 190.419 137.284C190.235 137.108 190.143 136.892 190.143 136.636C190.143 136.38 190.235 136.168 190.419 136C190.603 135.824 190.831 135.736 191.103 135.736C191.375 135.736 191.603 135.82 191.787 135.988C191.971 136.148 192.063 136.352 192.063 136.6C192.063 136.864 191.971 137.088 191.787 137.272C191.611 137.448 191.383 137.536 191.103 137.536ZM196.696 145.084C196.048 145.084 195.464 144.944 194.944 144.664C194.424 144.384 194.016 143.996 193.72 143.5C193.432 142.996 193.288 142.428 193.288 141.796C193.288 141.164 193.432 140.6 193.72 140.104C194.016 139.608 194.424 139.22 194.944 138.94C195.464 138.66 196.048 138.52 196.696 138.52C197.352 138.52 197.94 138.66 198.46 138.94C198.98 139.22 199.384 139.608 199.672 140.104C199.968 140.6 200.116 141.164 200.116 141.796C200.116 142.428 199.968 142.996 199.672 143.5C199.384 143.996 198.98 144.384 198.46 144.664C197.94 144.944 197.352 145.084 196.696 145.084ZM196.696 143.8C197.248 143.8 197.704 143.616 198.064 143.248C198.424 142.88 198.604 142.396 198.604 141.796C198.604 141.196 198.424 140.712 198.064 140.344C197.704 139.976 197.248 139.792 196.696 139.792C196.144 139.792 195.688 139.976 195.328 140.344C194.976 140.712 194.8 141.196 194.8 141.796C194.8 142.396 194.976 142.88 195.328 143.248C195.688 143.616 196.144 143.8 196.696 143.8ZM197.296 136.072H199.06L196.972 137.716H195.676L197.296 136.072ZM205.186 138.52C205.994 138.52 206.642 138.756 207.13 139.228C207.618 139.7 207.862 140.4 207.862 141.328V145H206.362V141.52C206.362 140.96 206.23 140.54 205.966 140.26C205.702 139.972 205.326 139.828 204.838 139.828C204.286 139.828 203.85 139.996 203.53 140.332C203.21 140.66 203.05 141.136 203.05 141.76V145H201.55V138.592H202.978V139.42C203.226 139.124 203.538 138.9 203.914 138.748C204.29 138.596 204.714 138.52 205.186 138.52Z" fill="#F3F3F3"/>
<path d="M197 161H147V201H197V161ZM192 196H152V181H192V196ZM192 171H152V166H192V171Z" fill="#F3F3F3"/>
<rect x="244" y="122" width="100" height="100" rx="15" fill="#323232"/>
<path d="M275.665 134.218H271.815L271.056 136H269.582L273.047 128.3H274.455L277.931 136H276.435L275.665 134.218ZM275.192 133.096L273.74 129.73L272.299 133.096H275.192ZM282.111 130.06C282.852 130.06 283.446 130.276 283.893 130.709C284.341 131.142 284.564 131.783 284.564 132.634V136H283.189V132.81C283.189 132.297 283.068 131.912 282.826 131.655C282.584 131.391 282.24 131.259 281.792 131.259C281.286 131.259 280.887 131.413 280.593 131.721C280.3 132.022 280.153 132.458 280.153 133.03V136H278.778V130.126H280.087V130.885C280.315 130.614 280.601 130.408 280.945 130.269C281.29 130.13 281.679 130.06 282.111 130.06ZM288.553 130.06C289.418 130.06 290.078 130.269 290.533 130.687C290.995 131.098 291.226 131.721 291.226 132.557V136H289.928V135.285C289.759 135.542 289.517 135.74 289.202 135.879C288.894 136.011 288.52 136.077 288.08 136.077C287.64 136.077 287.255 136.004 286.925 135.857C286.595 135.703 286.338 135.494 286.155 135.23C285.979 134.959 285.891 134.654 285.891 134.317C285.891 133.789 286.085 133.367 286.474 133.052C286.87 132.729 287.489 132.568 288.333 132.568H289.851V132.48C289.851 132.069 289.726 131.754 289.477 131.534C289.235 131.314 288.872 131.204 288.388 131.204C288.058 131.204 287.731 131.255 287.409 131.358C287.093 131.461 286.826 131.604 286.606 131.787L286.067 130.786C286.375 130.551 286.745 130.372 287.178 130.247C287.61 130.122 288.069 130.06 288.553 130.06ZM288.366 135.076C288.71 135.076 289.015 134.999 289.279 134.845C289.55 134.684 289.741 134.456 289.851 134.163V133.481H288.432C287.64 133.481 287.244 133.741 287.244 134.262C287.244 134.511 287.343 134.709 287.541 134.856C287.739 135.003 288.014 135.076 288.366 135.076ZM292.99 127.838H294.365V136H292.99V127.838ZM296.17 130.126H297.545V136H296.17V130.126ZM296.863 129.158C296.614 129.158 296.405 129.081 296.236 128.927C296.067 128.766 295.983 128.568 295.983 128.333C295.983 128.098 296.067 127.904 296.236 127.75C296.405 127.589 296.614 127.508 296.863 127.508C297.112 127.508 297.321 127.585 297.49 127.739C297.659 127.886 297.743 128.073 297.743 128.3C297.743 128.542 297.659 128.747 297.49 128.916C297.329 129.077 297.12 129.158 296.863 129.158ZM302.881 135.681C302.719 135.813 302.521 135.912 302.287 135.978C302.059 136.044 301.817 136.077 301.561 136.077C300.915 136.077 300.417 135.908 300.065 135.571C299.713 135.234 299.537 134.742 299.537 134.097V131.27H298.569V130.17H299.537V128.828H300.912V130.17H302.485V131.27H300.912V134.064C300.912 134.35 300.981 134.57 301.121 134.724C301.26 134.871 301.462 134.944 301.726 134.944C302.034 134.944 302.29 134.863 302.496 134.702L302.881 135.681ZM304.012 130.126H305.387V136H304.012V130.126ZM304.705 129.158C304.456 129.158 304.247 129.081 304.078 128.927C303.909 128.766 303.825 128.568 303.825 128.333C303.825 128.098 303.909 127.904 304.078 127.75C304.247 127.589 304.456 127.508 304.705 127.508C304.954 127.508 305.163 127.585 305.332 127.739C305.501 127.886 305.585 128.073 305.585 128.3C305.585 128.542 305.501 128.747 305.332 128.916C305.171 129.077 304.962 129.158 304.705 129.158ZM309.887 136.077C309.278 136.077 308.732 135.949 308.248 135.692C307.764 135.435 307.386 135.08 307.115 134.625C306.843 134.163 306.708 133.642 306.708 133.063C306.708 132.484 306.843 131.967 307.115 131.512C307.386 131.057 307.76 130.702 308.237 130.445C308.721 130.188 309.271 130.06 309.887 130.06C310.466 130.06 310.972 130.177 311.405 130.412C311.845 130.647 312.175 130.984 312.395 131.424L311.339 132.04C311.17 131.769 310.957 131.567 310.701 131.435C310.451 131.296 310.176 131.226 309.876 131.226C309.362 131.226 308.937 131.395 308.6 131.732C308.262 132.062 308.094 132.506 308.094 133.063C308.094 133.62 308.259 134.068 308.589 134.405C308.926 134.735 309.355 134.9 309.876 134.9C310.176 134.9 310.451 134.834 310.701 134.702C310.957 134.563 311.17 134.357 311.339 134.086L312.395 134.702C312.167 135.142 311.834 135.483 311.394 135.725C310.961 135.96 310.459 136.077 309.887 136.077ZM315.827 130.06C316.692 130.06 317.352 130.269 317.807 130.687C318.269 131.098 318.5 131.721 318.5 132.557V136H317.202V135.285C317.033 135.542 316.791 135.74 316.476 135.879C316.168 136.011 315.794 136.077 315.354 136.077C314.914 136.077 314.529 136.004 314.199 135.857C313.869 135.703 313.612 135.494 313.429 135.23C313.253 134.959 313.165 134.654 313.165 134.317C313.165 133.789 313.359 133.367 313.748 133.052C314.144 132.729 314.764 132.568 315.607 132.568H317.125V132.48C317.125 132.069 317 131.754 316.751 131.534C316.509 131.314 316.146 131.204 315.662 131.204C315.332 131.204 315.006 131.255 314.683 131.358C314.368 131.461 314.1 131.604 313.88 131.787L313.341 130.786C313.649 130.551 314.019 130.372 314.452 130.247C314.885 130.122 315.343 130.06 315.827 130.06ZM315.64 135.076C315.985 135.076 316.289 134.999 316.553 134.845C316.824 134.684 317.015 134.456 317.125 134.163V133.481H315.706C314.914 133.481 314.518 133.741 314.518 134.262C314.518 134.511 314.617 134.709 314.815 134.856C315.013 135.003 315.288 135.076 315.64 135.076ZM274.936 149L273.363 146.745C273.297 146.752 273.198 146.756 273.066 146.756H271.328V149H269.898V141.3H273.066C273.733 141.3 274.312 141.41 274.804 141.63C275.302 141.85 275.684 142.165 275.948 142.576C276.212 142.987 276.344 143.474 276.344 144.039C276.344 144.618 276.201 145.117 275.915 145.535C275.636 145.953 275.233 146.265 274.705 146.47L276.476 149H274.936ZM274.903 144.039C274.903 143.548 274.741 143.17 274.419 142.906C274.096 142.642 273.623 142.51 273 142.51H271.328V145.579H273C273.623 145.579 274.096 145.447 274.419 145.183C274.741 144.912 274.903 144.53 274.903 144.039ZM283.334 146.096C283.334 146.191 283.326 146.327 283.312 146.503H278.703C278.783 146.936 278.992 147.28 279.33 147.537C279.674 147.786 280.1 147.911 280.606 147.911C281.251 147.911 281.783 147.698 282.201 147.273L282.938 148.12C282.674 148.435 282.34 148.674 281.937 148.835C281.533 148.996 281.079 149.077 280.573 149.077C279.927 149.077 279.359 148.949 278.868 148.692C278.376 148.435 277.995 148.08 277.724 147.625C277.46 147.163 277.328 146.642 277.328 146.063C277.328 145.491 277.456 144.978 277.713 144.523C277.977 144.061 278.34 143.702 278.802 143.445C279.264 143.188 279.784 143.06 280.364 143.06C280.936 143.06 281.445 143.188 281.893 143.445C282.347 143.694 282.699 144.05 282.949 144.512C283.205 144.967 283.334 145.495 283.334 146.096ZM280.364 144.16C279.924 144.16 279.55 144.292 279.242 144.556C278.941 144.813 278.758 145.157 278.692 145.59H282.025C281.966 145.165 281.786 144.82 281.486 144.556C281.185 144.292 280.811 144.16 280.364 144.16ZM287.91 143.06C288.482 143.06 288.992 143.185 289.439 143.434C289.894 143.683 290.25 144.035 290.506 144.49C290.763 144.945 290.891 145.469 290.891 146.063C290.891 146.657 290.763 147.185 290.506 147.647C290.25 148.102 289.894 148.454 289.439 148.703C288.992 148.952 288.482 149.077 287.91 149.077C287.118 149.077 286.491 148.813 286.029 148.285V151.134H284.654V143.126H285.963V143.896C286.191 143.617 286.469 143.408 286.799 143.269C287.137 143.13 287.507 143.06 287.91 143.06ZM287.756 147.9C288.262 147.9 288.677 147.731 288.999 147.394C289.329 147.057 289.494 146.613 289.494 146.063C289.494 145.513 289.329 145.069 288.999 144.732C288.677 144.395 288.262 144.226 287.756 144.226C287.426 144.226 287.129 144.303 286.865 144.457C286.601 144.604 286.392 144.816 286.238 145.095C286.084 145.374 286.007 145.696 286.007 146.063C286.007 146.43 286.084 146.752 286.238 147.031C286.392 147.31 286.601 147.526 286.865 147.68C287.129 147.827 287.426 147.9 287.756 147.9ZM294.835 149.077C294.241 149.077 293.706 148.949 293.229 148.692C292.753 148.435 292.379 148.08 292.107 147.625C291.843 147.163 291.711 146.642 291.711 146.063C291.711 145.484 291.843 144.967 292.107 144.512C292.379 144.057 292.753 143.702 293.229 143.445C293.706 143.188 294.241 143.06 294.835 143.06C295.437 143.06 295.976 143.188 296.452 143.445C296.929 143.702 297.299 144.057 297.563 144.512C297.835 144.967 297.97 145.484 297.97 146.063C297.97 146.642 297.835 147.163 297.563 147.625C297.299 148.08 296.929 148.435 296.452 148.692C295.976 148.949 295.437 149.077 294.835 149.077ZM294.835 147.9C295.341 147.9 295.759 147.731 296.089 147.394C296.419 147.057 296.584 146.613 296.584 146.063C296.584 145.513 296.419 145.069 296.089 144.732C295.759 144.395 295.341 144.226 294.835 144.226C294.329 144.226 293.911 144.395 293.581 144.732C293.259 145.069 293.097 145.513 293.097 146.063C293.097 146.613 293.259 147.057 293.581 147.394C293.911 147.731 294.329 147.9 294.835 147.9ZM300.594 143.984C300.99 143.368 301.687 143.06 302.684 143.06V144.369C302.567 144.347 302.461 144.336 302.365 144.336C301.83 144.336 301.412 144.494 301.111 144.809C300.811 145.117 300.66 145.564 300.66 146.151V149H299.285V143.126H300.594V143.984ZM307.597 148.681C307.435 148.813 307.237 148.912 307.003 148.978C306.775 149.044 306.533 149.077 306.277 149.077C305.631 149.077 305.133 148.908 304.781 148.571C304.429 148.234 304.253 147.742 304.253 147.097V144.27H303.285V143.17H304.253V141.828H305.628V143.17H307.201V144.27H305.628V147.064C305.628 147.35 305.697 147.57 305.837 147.724C305.976 147.871 306.178 147.944 306.442 147.944C306.75 147.944 307.006 147.863 307.212 147.702L307.597 148.681ZM314.056 146.096C314.056 146.191 314.049 146.327 314.034 146.503H309.425C309.506 146.936 309.715 147.28 310.052 147.537C310.397 147.786 310.822 147.911 311.328 147.911C311.974 147.911 312.505 147.698 312.923 147.273L313.66 148.12C313.396 148.435 313.063 148.674 312.659 148.835C312.256 148.996 311.801 149.077 311.295 149.077C310.65 149.077 310.082 148.949 309.59 148.692C309.099 148.435 308.718 148.08 308.446 147.625C308.182 147.163 308.05 146.642 308.05 146.063C308.05 145.491 308.179 144.978 308.435 144.523C308.699 144.061 309.062 143.702 309.524 143.445C309.986 143.188 310.507 143.06 311.086 143.06C311.658 143.06 312.168 143.188 312.615 143.445C313.07 143.694 313.422 144.05 313.671 144.512C313.928 144.967 314.056 145.495 314.056 146.096ZM311.086 144.16C310.646 144.16 310.272 144.292 309.964 144.556C309.664 144.813 309.48 145.157 309.414 145.59H312.747C312.689 145.165 312.509 144.82 312.208 144.556C311.908 144.292 311.534 144.16 311.086 144.16ZM317.192 149.077C316.715 149.077 316.25 149.015 315.795 148.89C315.34 148.765 314.977 148.608 314.706 148.417L315.234 147.372C315.498 147.548 315.813 147.691 316.18 147.801C316.554 147.904 316.921 147.955 317.28 147.955C318.101 147.955 318.512 147.739 318.512 147.306C318.512 147.101 318.406 146.958 318.193 146.877C317.988 146.796 317.654 146.719 317.192 146.646C316.708 146.573 316.312 146.488 316.004 146.393C315.703 146.298 315.439 146.133 315.212 145.898C314.992 145.656 314.882 145.322 314.882 144.897C314.882 144.34 315.113 143.896 315.575 143.566C316.044 143.229 316.675 143.06 317.467 143.06C317.87 143.06 318.274 143.108 318.677 143.203C319.08 143.291 319.41 143.412 319.667 143.566L319.139 144.611C318.64 144.318 318.079 144.171 317.456 144.171C317.053 144.171 316.745 144.233 316.532 144.358C316.327 144.475 316.224 144.633 316.224 144.831C316.224 145.051 316.334 145.209 316.554 145.304C316.781 145.392 317.13 145.476 317.599 145.557C318.068 145.63 318.453 145.715 318.754 145.81C319.055 145.905 319.311 146.067 319.524 146.294C319.744 146.521 319.854 146.844 319.854 147.262C319.854 147.812 319.616 148.252 319.139 148.582C318.662 148.912 318.013 149.077 317.192 149.077Z" fill="#F3F3F3"/>
<path d="M316.625 184.352H295.648V163.375C295.648 163.117 295.438 162.906 295.18 162.906H293.656C290.578 162.901 287.53 163.505 284.686 164.682C281.842 165.86 279.259 167.588 277.086 169.768C274.946 171.901 273.24 174.431 272.064 177.215C270.841 180.103 270.213 183.208 270.219 186.344C270.214 189.422 270.817 192.47 271.995 195.314C273.172 198.158 274.901 200.741 277.08 202.914C279.231 205.064 281.738 206.758 284.527 207.935C287.415 209.159 290.52 209.787 293.656 209.781C296.734 209.786 299.783 209.183 302.627 208.005C305.47 206.828 308.053 205.099 310.227 202.92C312.377 200.769 314.07 198.262 315.248 195.473C316.471 192.585 317.099 189.48 317.094 186.344V184.82C317.094 184.562 316.883 184.352 316.625 184.352ZM307.35 200.16C305.535 201.96 303.384 203.385 301.018 204.352C298.652 205.319 296.118 205.81 293.563 205.797C288.4 205.773 283.549 203.752 279.898 200.102C276.225 196.428 274.203 191.541 274.203 186.344C274.203 181.146 276.225 176.26 279.898 172.586C283.098 169.387 287.217 167.435 291.664 166.99V188.336H313.01C312.559 192.807 310.59 196.949 307.35 200.16ZM321.781 181.094L321.629 179.441C321.131 174.045 318.734 168.953 314.879 165.109C311.021 161.259 305.939 158.875 300.512 158.371L298.854 158.219C298.578 158.195 298.344 158.406 298.344 158.682V181.187C298.344 181.445 298.555 181.656 298.813 181.656L321.313 181.598C321.588 181.598 321.805 181.363 321.781 181.094ZM302.316 177.684V162.648C306.007 163.421 309.395 165.249 312.066 167.91C314.744 170.582 316.578 173.98 317.34 177.643L302.316 177.684Z" fill="#F3F3F3"/>
</svg>
