<svg width="407" height="77" viewBox="0 0 407 77" fill="none" xmlns="http://www.w3.org/2000/svg">
<line x1="1" y1="19.4852" x2="157.013" y2="19.4852" stroke="#F8F8F8" stroke-width="2" stroke-linecap="round"/>
<rect x="159.006" y="1.49146" width="38" height="38" stroke="#F8F8F8" stroke-width="2"/>
<path d="M360.305 76.0571C373.099 76.0571 383.47 65.0754 383.47 51.5287C383.47 37.9819 373.099 27.0002 360.305 27.0002C347.511 27.0002 337.139 37.9819 337.139 51.5287C337.139 65.0754 347.511 76.0571 360.305 76.0571Z" fill="#F8F8F8"/>
<path d="M405.072 41.5287C405.072 54.5777 395.095 65.0571 382.906 65.0571C370.718 65.0571 360.741 54.5777 360.741 41.5287C360.741 28.4796 370.718 18.0002 382.906 18.0002C395.095 18.0002 405.072 28.4796 405.072 41.5287Z" stroke="#3F3D56" stroke-width="2"/>
</svg>
