<svg width="1600" height="88" viewBox="0 0 1600 88" fill="none" xmlns="http://www.w3.org/2000/svg">
<path fill-rule="evenodd" clip-rule="evenodd" d="M0.471924 0.54541V19.8787H15.111V58.5454H29.75V0.54541H44.3891V19.8787H59.0282V58.5454H73.6672V0.54541H88.3063V39.2121H102.945V77.8787H117.584V87.5454H0.471924V0.54541Z" fill="#323232"/>
<path fill-rule="evenodd" clip-rule="evenodd" d="M337.472 0.54541V19.8787H351.736V58.5454H366V0.54541H380.264V19.8787H394.528V58.5454H408.792V0.54541H423.056V39.2121H437.32V77.8787H451.584V87.5454H337.472V0.54541Z" fill="#323232"/>
<path fill-rule="evenodd" clip-rule="evenodd" d="M661.472 0.54541V19.8787H675.736V58.5454H690V0.54541H704.264V19.8787H718.528V58.5454H732.792V0.54541H747.056V39.2121H761.32V77.8787H775.584V87.5454H661.472V0.54541Z" fill="#323232"/>
<path fill-rule="evenodd" clip-rule="evenodd" d="M1233.49 0.54541V19.8787H1247.76V58.5454H1262.02V0.54541H1276.28V19.8787H1290.55V58.5454H1304.81V0.54541H1319.08V39.2121H1333.34V77.8787H1347.6V87.5454H1233.49V0.54541Z" fill="#323232"/>
<path fill-rule="evenodd" clip-rule="evenodd" d="M347.472 0.54541V19.8787H331.911V58.5454H316.35V0.54541H300.79V19.8787H285.229V58.5454H269.668V0.54541H254.107V39.2121H238.546V77.8787H222.986V87.5454H347.472V0.54541Z" fill="#323232"/>
<path fill-rule="evenodd" clip-rule="evenodd" d="M664.472 0.54541V19.8787H649.286V58.5454H634.1V0.54541H618.915V19.8787H603.729V58.5454H588.543V0.54541H573.357V39.2121H558.171V77.8787H542.986V87.5454H664.472V0.54541Z" fill="#323232"/>
<path fill-rule="evenodd" clip-rule="evenodd" d="M1235.49 0.54541V19.8787H1220.31V58.5454H1205.12V0.54541H1189.94V19.8787H1174.75V58.5454H1159.56V0.54541H1144.38V39.2121H1129.19V77.8787H1114.01V87.5454H1235.49V0.54541Z" fill="#323232"/>
<path fill-rule="evenodd" clip-rule="evenodd" d="M1009.47 0.54541V19.8787H994.286V58.5454H979.1V0.54541H963.915V19.8787H948.729V58.5454H933.543V0.54541H918.357V39.2121H903.171V77.8787H887.986V87.5454H1009.47V0.54541Z" fill="#323232"/>
<path fill-rule="evenodd" clip-rule="evenodd" d="M1600.47 0.54541V19.8787H1582.22V58.5454H1563.97V0.54541H1545.72V19.8787H1527.47V58.5454H1509.22V0.54541H1490.97V39.2121H1472.72V77.8787H1454.47V87.5454H1600.47V0.54541Z" fill="#323232"/>
<path fill-rule="evenodd" clip-rule="evenodd" d="M224.938 0.54541V19.8787H209.377V58.5454H193.816V0.54541H178.255V19.8787H162.694V58.5454H147.134V0.54541H131.573V39.2121H116.012V77.8787H100.451V87.5454H224.938V0.54541Z" fill="#323232"/>
<path fill-rule="evenodd" clip-rule="evenodd" d="M561.938 0.54541V19.8787H546.752V58.5454H531.566V0.54541H516.38V19.8787H501.194V58.5454H486.009V0.54541H470.823V39.2121H455.637V77.8787H440.451V87.5454H561.938V0.54541Z" fill="#323232"/>
<path fill-rule="evenodd" clip-rule="evenodd" d="M1122.96 0.54541V19.8787H1107.77V58.5454H1092.59V0.54541H1077.4V19.8787H1062.22V58.5454H1047.03V0.54541H1031.84V39.2121H1016.66V77.8787H1001.47V87.5454H1122.96V0.54541Z" fill="#323232"/>
<path fill-rule="evenodd" clip-rule="evenodd" d="M896.938 0.54541V19.8787H881.752V58.5454H866.566V0.54541H851.38V19.8787H836.195V58.5454H821.009V0.54541H805.823V39.2121H790.637V77.8787H775.451V87.5454H896.938V0.54541Z" fill="#323232"/>
<path fill-rule="evenodd" clip-rule="evenodd" d="M1457.96 0.54541V19.8787H1442.77V58.5454H1427.59V0.54541H1412.4V19.8787H1397.22V58.5454H1382.03V0.54541H1366.84V39.2121H1351.66V77.8787H1336.47V87.5454H1457.96V0.54541Z" fill="#323232"/>
</svg>
