<svg width="200" height="200" viewBox="0 0 200 200" fill="none" xmlns="http://www.w3.org/2000/svg">
<path d="M187.5 99.4524C187.5 99.0227 187.5 98.5344 187.48 97.968C187.461 96.386 187.422 94.6086 187.383 92.7141C187.227 87.2649 186.953 81.8352 186.523 76.718C185.938 69.6672 185.078 63.7883 183.906 59.3743C182.67 54.7678 180.246 50.5666 176.876 47.1906C173.507 43.8146 169.311 41.382 164.707 40.136C159.18 38.6516 148.359 37.7336 133.125 37.1672C125.879 36.8938 118.125 36.718 110.371 36.6204C107.656 36.5813 105.137 36.5618 102.871 36.5422H97.1289C94.8633 36.5618 92.3437 36.5813 89.6289 36.6204C81.875 36.718 74.1211 36.8938 66.875 37.1672C51.6406 37.7532 40.8008 38.6711 35.293 40.136C30.6875 41.3789 26.4896 43.8105 23.12 47.187C19.7504 50.5635 17.3273 54.7663 16.0938 59.3743C14.9023 63.7883 14.0625 69.6672 13.4766 76.718C13.0469 81.8352 12.7734 87.2649 12.6172 92.7141C12.5586 94.6086 12.5391 96.386 12.5195 97.968C12.5195 98.5344 12.5 99.0227 12.5 99.4524V100.546C12.5 100.976 12.5 101.464 12.5195 102.031C12.5391 103.613 12.5781 105.39 12.6172 107.284C12.7734 112.734 13.0469 118.163 13.4766 123.281C14.0625 130.331 14.9219 136.21 16.0938 140.624C18.5938 149.98 25.9375 157.363 35.293 159.863C40.8008 161.347 51.6406 162.265 66.875 162.831C74.1211 163.105 81.875 163.281 89.6289 163.378C92.3437 163.417 94.8633 163.437 97.1289 163.456H102.871C105.137 163.437 107.656 163.417 110.371 163.378C118.125 163.281 125.879 163.105 133.125 162.831C148.359 162.245 159.199 161.327 164.707 159.863C174.062 157.363 181.406 149.999 183.906 140.624C185.098 136.21 185.938 130.331 186.523 123.281C186.953 118.163 187.227 112.734 187.383 107.284C187.441 105.39 187.461 103.613 187.48 102.031C187.48 101.464 187.5 100.976 187.5 100.546V99.4524V99.4524ZM173.438 100.468C173.438 100.878 173.438 101.327 173.418 101.855C173.398 103.378 173.359 105.058 173.32 106.874C173.184 112.07 172.91 117.265 172.5 122.089C171.973 128.378 171.23 133.534 170.312 136.991C169.102 141.503 165.547 145.077 161.055 146.269C156.953 147.363 146.621 148.241 132.578 148.769C125.469 149.042 117.812 149.218 110.176 149.316C107.5 149.355 105.02 149.374 102.793 149.374H97.207L89.8242 149.316C82.1875 149.218 74.5508 149.042 67.4219 148.769C53.3789 148.222 43.0273 147.363 38.9453 146.269C34.4531 145.058 30.8984 141.503 29.6875 136.991C28.7695 133.534 28.0273 128.378 27.5 122.089C27.0898 117.265 26.8359 112.07 26.6797 106.874C26.6211 105.058 26.6016 103.359 26.582 101.855C26.582 101.327 26.5625 100.859 26.5625 100.468V99.5305C26.5625 99.1204 26.5625 98.6711 26.582 98.1438C26.6016 96.6204 26.6406 94.9407 26.6797 93.1243C26.8164 87.9289 27.0898 82.7336 27.5 77.9094C28.0273 71.6204 28.7695 66.4641 29.6875 63.0071C30.8984 58.4954 34.4531 54.9211 38.9453 53.7297C43.0469 52.636 53.3789 51.7571 67.4219 51.2297C74.5313 50.9563 82.1875 50.7805 89.8242 50.6829C92.5 50.6438 94.9805 50.6243 97.207 50.6243H102.793L110.176 50.6829C117.812 50.7805 125.449 50.9563 132.578 51.2297C146.621 51.7766 156.973 52.636 161.055 53.7297C165.547 54.9407 169.102 58.4954 170.312 63.0071C171.23 66.4641 171.973 71.6204 172.5 77.9094C172.91 82.7336 173.164 87.9289 173.32 93.1243C173.379 94.9407 173.398 96.6399 173.418 98.1438C173.418 98.6711 173.438 99.1399 173.438 99.5305V100.468ZM82.6172 126.171L127.93 99.8039L82.6172 73.8274V126.171Z" fill="#F8F8F8"/>
</svg>
